<?xml version="1.0" standalone="no"?>
<!DOCTYPE svg PUBLIC "-//W3C//DTD SVG 20010904//EN"
 "http://www.w3.org/TR/2001/REC-SVG-20010904/DTD/svg10.dtd">
<svg version="1.0" xmlns="http://www.w3.org/2000/svg"
 width="10000.000000pt" height="3880.000000pt" viewBox="0 0 10000.000000 3880.000000"
 preserveAspectRatio="xMidYMid meet">

<g transform="translate(0.000000,3880.000000) scale(0.100000,-0.100000)"
fill="#000000" stroke="none">
<path d="M16970 37804 c-36 -2 -227 -11 -425 -19 -545 -23 -910 -45 -1010 -61
-49 -7 -198 -25 -330 -39 -132 -14 -281 -34 -331 -46 -106 -24 -255 -45 -406
-59 -59 -5 -136 -19 -170 -31 -74 -25 -207 -53 -298 -64 -36 -4 -87 -16 -115
-26 -57 -21 -183 -46 -291 -59 -40 -4 -91 -17 -112 -28 -39 -20 -222 -62 -272
-62 -15 0 -69 -21 -120 -46 -65 -32 -112 -49 -157 -54 -35 -5 -105 -24 -156
-43 -50 -19 -112 -38 -137 -41 -25 -3 -71 -19 -103 -35 -33 -17 -94 -37 -137
-46 -43 -9 -95 -24 -117 -34 -52 -25 -159 -61 -181 -61 -9 0 -44 -13 -77 -28
-33 -16 -84 -35 -113 -42 -30 -7 -79 -25 -110 -40 -31 -15 -86 -35 -122 -45
-36 -9 -87 -28 -115 -41 -27 -12 -63 -26 -80 -30 -16 -4 -66 -24 -110 -44 -44
-21 -95 -41 -114 -45 -19 -4 -55 -19 -80 -33 -81 -45 -96 -52 -114 -52 -20 0
-60 -19 -111 -54 -19 -13 -54 -26 -78 -30 -24 -4 -54 -18 -68 -31 -14 -13 -56
-33 -94 -44 -38 -12 -83 -34 -101 -50 -19 -16 -56 -34 -86 -41 -30 -7 -70 -25
-90 -41 -20 -16 -62 -34 -97 -42 -45 -10 -67 -22 -86 -43 -15 -19 -45 -36 -83
-48 -32 -10 -69 -29 -83 -42 -25 -23 -98 -54 -129 -54 -9 0 -31 -15 -48 -33
-17 -19 -53 -42 -80 -52 -26 -10 -74 -35 -106 -56 -32 -21 -68 -41 -80 -45
-12 -4 -69 -35 -127 -69 -108 -65 -179 -105 -264 -151 -27 -14 -56 -32 -63
-39 -7 -8 -37 -25 -66 -39 -30 -14 -60 -33 -68 -42 -8 -9 -41 -29 -74 -44 -33
-15 -69 -38 -80 -50 -11 -13 -43 -33 -72 -46 -28 -13 -58 -32 -65 -43 -8 -11
-39 -31 -69 -45 -30 -13 -63 -34 -74 -46 -11 -12 -37 -31 -57 -41 -20 -10 -48
-29 -62 -43 -15 -13 -40 -26 -56 -30 -28 -5 -43 -18 -94 -77 -9 -11 -30 -22
-47 -26 -16 -3 -40 -18 -52 -33 -12 -15 -38 -36 -57 -45 -19 -10 -47 -30 -61
-45 -14 -15 -47 -37 -73 -50 -26 -12 -52 -33 -58 -45 -6 -13 -43 -42 -82 -66
-39 -23 -73 -45 -76 -48 -5 -7 -108 -84 -150 -113 -14 -10 -50 -38 -80 -63
-30 -24 -80 -64 -110 -87 -30 -23 -59 -47 -65 -54 -5 -6 -28 -23 -50 -37 -22
-14 -62 -46 -89 -72 -27 -25 -61 -52 -77 -60 -15 -8 -47 -37 -70 -65 -23 -27
-51 -52 -63 -56 -11 -4 -56 -41 -101 -84 -44 -42 -90 -82 -102 -89 -13 -6 -30
-25 -38 -41 -9 -17 -22 -30 -30 -30 -9 0 -53 -37 -98 -82 -46 -46 -101 -96
-123 -113 -21 -16 -91 -82 -155 -145 -63 -63 -126 -124 -140 -135 -13 -12 -33
-31 -44 -43 -23 -26 -160 -157 -196 -188 -37 -31 -327 -336 -347 -364 -9 -14
-61 -70 -115 -125 -54 -55 -111 -119 -128 -142 -16 -23 -37 -48 -47 -55 -23
-18 -169 -182 -211 -238 -19 -25 -48 -59 -65 -76 -17 -16 -53 -59 -81 -93 -27
-35 -67 -82 -88 -103 -20 -22 -37 -44 -37 -48 0 -5 -14 -17 -32 -28 -18 -11
-41 -36 -52 -54 -41 -67 -96 -147 -106 -153 -6 -3 -25 -30 -44 -58 -19 -29
-59 -79 -90 -112 -32 -33 -64 -72 -72 -87 -8 -15 -27 -41 -42 -57 -63 -67 -80
-88 -95 -117 -9 -17 -23 -36 -31 -43 -8 -7 -25 -33 -36 -57 -12 -24 -26 -44
-30 -44 -5 0 -19 -17 -31 -37 -13 -21 -52 -75 -87 -121 -35 -46 -71 -102 -81
-126 -10 -23 -29 -49 -42 -58 -13 -8 -31 -28 -39 -44 -30 -62 -103 -166 -126
-181 -13 -8 -28 -32 -34 -54 -6 -22 -24 -54 -39 -72 -16 -17 -38 -50 -49 -73
-11 -22 -28 -46 -37 -54 -9 -8 -26 -32 -37 -54 -11 -23 -32 -52 -48 -66 -15
-14 -52 -72 -82 -130 -75 -145 -84 -161 -156 -269 -35 -52 -87 -140 -114 -195
-45 -89 -129 -238 -221 -391 -17 -27 -46 -81 -65 -120 -18 -38 -42 -79 -52
-90 -9 -11 -23 -36 -29 -56 -7 -20 -25 -56 -41 -80 -15 -24 -33 -63 -39 -85
-6 -23 -22 -52 -36 -66 -14 -15 -29 -46 -36 -76 -7 -33 -23 -67 -45 -93 -19
-22 -34 -49 -34 -59 0 -10 -16 -39 -35 -65 -20 -25 -39 -60 -42 -78 -3 -18
-26 -75 -50 -127 -25 -52 -48 -104 -53 -115 -4 -11 -33 -72 -63 -135 -30 -63
-72 -155 -92 -205 -20 -49 -56 -137 -80 -195 -24 -58 -52 -125 -61 -150 -10
-25 -25 -56 -35 -70 -9 -14 -22 -45 -29 -70 -6 -25 -25 -67 -40 -95 -16 -27
-32 -68 -35 -90 -4 -22 -12 -45 -17 -52 -9 -11 -61 -148 -79 -209 -5 -17 -20
-42 -33 -55 -16 -17 -25 -41 -29 -77 -3 -29 -15 -68 -26 -85 -11 -18 -31 -70
-44 -117 -14 -47 -36 -106 -49 -131 -14 -25 -28 -69 -31 -96 -6 -52 -56 -175
-76 -187 -6 -4 -11 -19 -11 -34 0 -29 -18 -89 -56 -190 -13 -34 -24 -73 -24
-85 0 -13 -14 -63 -31 -112 -17 -49 -44 -139 -59 -201 -16 -62 -33 -121 -38
-131 -6 -10 -18 -49 -27 -88 -10 -38 -33 -116 -51 -171 -19 -56 -34 -112 -34
-125 0 -13 -17 -96 -39 -184 -22 -88 -52 -207 -66 -265 -14 -58 -32 -134 -40
-170 -7 -36 -28 -130 -45 -210 -18 -80 -38 -176 -45 -215 -7 -38 -18 -90 -24
-115 -11 -43 -43 -224 -63 -355 -5 -33 -15 -89 -23 -125 -9 -36 -15 -81 -15
-100 0 -19 -9 -80 -20 -135 -41 -200 -58 -312 -64 -415 -4 -58 -13 -134 -21
-170 -8 -36 -19 -108 -25 -160 -5 -52 -14 -120 -20 -150 -5 -30 -14 -145 -19
-255 -6 -110 -15 -256 -21 -325 -5 -69 -17 -240 -25 -380 -9 -140 -20 -309
-25 -375 -5 -66 -9 -302 -9 -525 1 -223 0 -4684 -1 -9913 l-2 -9508 40 -67
c51 -85 66 -98 127 -106 64 -8 32258 -8 32345 0 36 4 73 11 83 16 9 5 43 43
75 85 l57 76 3 7050 c2 5448 -1 7053 -10 7064 -6 8 -29 23 -50 34 -38 19 -92
20 -5121 18 -2795 -1 -5090 2 -5099 6 -9 4 -24 17 -33 31 -14 21 -15 288 -15
2736 -1 1556 -5 2766 -10 2838 -5 69 -16 179 -25 245 -8 66 -22 185 -30 265
-16 157 -33 266 -46 291 -5 9 -13 59 -20 110 -6 52 -26 148 -44 214 -19 66
-37 138 -40 160 -10 57 -34 140 -51 173 -8 16 -17 51 -21 78 -3 27 -22 87 -40
134 -19 47 -39 110 -44 140 -6 30 -23 80 -39 110 -15 30 -31 76 -35 102 -4 26
-22 69 -40 98 -18 28 -36 71 -39 95 -4 26 -19 59 -37 81 -16 20 -37 62 -45 92
-9 30 -27 70 -40 89 -13 20 -28 52 -34 72 -5 20 -25 58 -44 84 -19 26 -37 59
-40 73 -7 25 -100 193 -136 244 -9 14 -21 36 -25 50 -4 14 -18 39 -30 55 -21
28 -51 77 -115 189 -14 24 -33 54 -43 67 -10 13 -43 62 -74 109 -31 47 -68 96
-81 110 -13 14 -32 41 -42 60 -10 19 -30 46 -44 59 -14 14 -26 29 -26 34 0 5
-15 27 -32 47 -18 21 -73 86 -123 145 -133 158 -495 531 -640 660 -31 28 -76
68 -100 90 -61 56 -124 107 -159 129 -17 10 -35 25 -39 32 -4 8 -31 30 -60 49
-50 34 -110 78 -172 128 -16 13 -48 33 -70 45 -22 11 -49 30 -60 42 -11 12
-42 32 -70 45 -27 12 -56 29 -64 39 -7 9 -37 28 -65 42 -28 14 -62 36 -76 49
-14 13 -47 31 -75 40 -27 10 -58 26 -68 36 -10 11 -46 33 -80 49 -34 17 -78
39 -97 50 -19 10 -53 23 -76 29 -23 6 -58 24 -79 41 -20 16 -64 37 -97 46 -32
9 -77 30 -100 46 -22 16 -64 36 -94 44 -30 7 -78 26 -107 40 -28 15 -78 33
-111 41 -32 7 -94 29 -138 48 -43 19 -91 35 -107 35 -36 0 -154 32 -214 59
-27 11 -81 24 -120 27 -40 3 -97 14 -127 24 -161 53 -196 61 -306 70 -66 5
-153 15 -194 20 -122 18 -298 39 -415 51 -158 16 -524 5 -707 -21 -178 -25
-290 -37 -466 -50 -89 -7 -152 -17 -190 -31 -86 -31 -167 -50 -267 -60 -68 -7
-108 -17 -165 -43 -47 -21 -100 -37 -140 -41 -42 -5 -83 -17 -115 -35 -27 -15
-81 -36 -120 -45 -38 -9 -96 -30 -127 -46 -32 -16 -83 -36 -113 -44 -30 -7
-70 -26 -89 -40 -19 -15 -63 -35 -97 -45 -34 -11 -88 -35 -118 -54 -31 -19
-70 -38 -86 -42 -42 -10 -208 -100 -230 -124 -9 -10 -40 -27 -69 -36 -28 -9
-62 -27 -76 -39 -14 -13 -48 -34 -76 -48 -27 -14 -57 -33 -65 -43 -8 -9 -41
-29 -74 -44 -33 -15 -66 -34 -74 -44 -7 -9 -40 -32 -72 -52 -33 -19 -59 -39
-59 -44 0 -5 -10 -12 -21 -15 -12 -4 -40 -24 -63 -45 -23 -21 -60 -47 -83 -59
-24 -12 -43 -26 -43 -31 0 -6 -19 -23 -43 -38 -24 -15 -57 -42 -75 -59 -17
-18 -36 -33 -41 -33 -5 0 -28 -20 -51 -44 -23 -24 -52 -49 -65 -56 -12 -7 -28
-22 -35 -34 -6 -13 -24 -30 -39 -39 -15 -9 -54 -44 -87 -78 -32 -33 -70 -71
-83 -83 -13 -11 -47 -45 -75 -75 -28 -30 -101 -104 -161 -165 -105 -105 -155
-162 -235 -265 -19 -24 -50 -60 -68 -79 -18 -19 -39 -47 -47 -62 -7 -14 -21
-33 -30 -40 -9 -8 -25 -30 -35 -49 -10 -20 -38 -58 -63 -86 -26 -27 -56 -67
-69 -88 -13 -21 -42 -65 -65 -97 -24 -32 -43 -62 -43 -67 0 -6 -13 -29 -30
-51 -16 -23 -30 -46 -30 -52 0 -5 -13 -24 -29 -42 -16 -18 -39 -53 -51 -78
-13 -25 -33 -59 -46 -76 -12 -16 -29 -47 -38 -68 -9 -21 -28 -54 -44 -74 -15
-21 -36 -56 -46 -79 -10 -23 -27 -50 -37 -59 -10 -9 -26 -38 -34 -65 -9 -28
-27 -62 -40 -77 -12 -15 -26 -43 -30 -62 -9 -43 -38 -102 -59 -119 -8 -7 -20
-38 -27 -69 -7 -33 -24 -73 -40 -94 -16 -21 -34 -60 -40 -90 -6 -29 -24 -72
-40 -94 -20 -29 -32 -62 -38 -107 -5 -36 -22 -90 -39 -123 -17 -32 -33 -79
-37 -104 -4 -25 -18 -68 -32 -97 -13 -28 -31 -85 -39 -125 -8 -40 -26 -102
-41 -137 -14 -36 -33 -110 -44 -165 -10 -56 -24 -121 -32 -146 -8 -25 -22 -97
-31 -160 -9 -63 -28 -169 -42 -234 -15 -66 -30 -165 -35 -220 -5 -56 -16 -180
-24 -276 -9 -96 -20 -195 -25 -220 -5 -26 -9 -382 -9 -839 0 -859 2 -823 -53
-852 -15 -8 -246 -13 -833 -16 l-812 -5 -27 24 -28 24 -1 879 c-1 1073 12
1412 63 1620 10 44 22 121 26 170 6 90 48 325 63 354 5 9 11 47 15 84 4 38 22
126 41 195 18 70 36 154 40 187 4 33 13 75 20 95 27 71 46 141 51 187 6 52 32
142 45 158 4 6 12 29 18 50 31 123 41 154 59 197 12 26 24 64 28 85 4 21 18
63 31 93 14 30 36 89 50 130 14 41 36 96 49 122 13 26 24 52 24 58 0 6 14 39
31 73 17 34 39 89 50 123 10 34 29 77 42 96 13 19 27 48 31 64 4 16 22 54 41
84 18 30 38 73 44 96 6 22 24 58 41 80 16 21 30 45 30 52 0 19 31 76 46 85 7
4 20 30 29 57 9 28 28 63 41 79 13 16 33 50 44 76 11 26 34 65 50 85 17 21 30
47 30 58 0 11 20 47 45 80 25 33 45 64 45 70 0 6 15 30 34 55 19 24 37 53 40
65 4 11 20 37 36 57 17 21 30 43 30 50 0 7 23 43 51 81 28 38 54 76 57 84 3 8
13 23 22 33 9 9 23 30 30 45 8 15 25 39 38 54 14 15 30 36 36 47 19 33 103
153 151 216 25 33 64 84 86 113 22 28 44 52 49 52 5 0 11 9 15 19 3 11 21 37
40 58 19 21 54 60 77 86 24 27 62 67 86 90 23 22 42 46 42 53 0 7 50 64 111
126 60 62 134 138 164 168 29 30 66 67 82 81 15 14 35 32 43 41 27 29 116 112
161 151 112 96 156 135 194 173 22 23 55 49 73 58 17 9 32 20 32 24 0 5 21 21
47 38 26 16 62 43 79 60 17 17 46 36 63 44 18 7 40 24 48 37 9 13 29 31 44 39
16 8 51 35 79 59 28 25 55 45 60 45 4 0 23 12 41 28 18 15 43 32 55 37 12 6
41 26 64 45 24 19 62 46 86 60 105 61 171 104 202 131 18 16 37 29 43 29 5 0
33 16 61 36 29 19 65 38 80 41 16 3 46 22 68 42 23 21 60 42 85 49 28 7 56 25
76 47 18 19 41 35 51 35 24 0 90 33 107 54 12 14 46 28 102 40 15 3 45 21 67
40 29 24 55 35 91 40 33 4 67 18 103 43 30 21 78 43 111 50 32 8 83 27 112 44
29 16 86 36 126 45 44 9 87 25 106 40 21 16 61 30 110 40 42 8 101 28 131 44
29 16 91 37 135 46 45 9 114 29 152 44 39 15 102 33 141 39 38 6 104 21 145
35 125 40 509 106 824 141 77 9 169 20 205 25 139 19 558 33 819 26 253 -7
373 -15 526 -35 39 -5 115 -14 170 -20 198 -22 335 -42 392 -55 32 -8 96 -19
143 -26 136 -19 233 -40 257 -55 12 -8 70 -24 130 -36 59 -12 132 -32 161 -45
30 -13 93 -31 140 -40 53 -9 107 -27 137 -44 28 -16 81 -34 120 -41 68 -11
114 -29 145 -54 8 -7 56 -22 105 -35 50 -12 108 -32 130 -45 22 -12 69 -30
105 -39 39 -10 81 -30 107 -50 28 -22 60 -36 91 -41 53 -8 74 -17 115 -52 16
-13 48 -28 72 -34 24 -6 58 -24 76 -40 18 -16 56 -35 85 -44 37 -11 59 -24 74
-45 14 -20 36 -34 64 -41 24 -6 65 -28 91 -50 26 -21 55 -39 65 -39 9 0 36
-14 60 -31 24 -18 66 -42 95 -54 28 -13 56 -30 63 -38 7 -8 51 -39 98 -68 47
-30 107 -69 132 -86 26 -18 60 -41 76 -50 15 -10 47 -33 70 -52 22 -18 52 -38
66 -44 23 -10 94 -67 150 -121 14 -13 44 -34 66 -46 23 -11 50 -30 60 -41 11
-12 35 -30 56 -40 20 -10 45 -30 57 -45 11 -14 42 -39 67 -56 50 -31 55 -36
188 -162 50 -47 103 -90 118 -97 15 -6 28 -15 28 -20 0 -5 100 -109 223 -232
251 -251 353 -358 380 -402 11 -16 45 -59 76 -95 31 -36 72 -85 91 -110 18
-25 39 -49 45 -55 6 -5 34 -41 63 -80 28 -38 62 -83 75 -100 13 -16 32 -45 41
-63 9 -18 46 -71 82 -117 35 -47 72 -101 81 -120 9 -19 20 -35 25 -35 4 0 21
-24 38 -54 17 -29 39 -61 50 -71 11 -10 20 -23 20 -30 0 -6 20 -40 45 -75 25
-35 45 -70 45 -78 0 -7 14 -28 31 -45 17 -17 40 -51 50 -75 11 -25 30 -57 43
-73 14 -16 27 -42 31 -58 3 -15 22 -46 41 -67 18 -22 37 -55 40 -74 6 -35 21
-65 46 -91 16 -17 199 -380 198 -395 0 -5 11 -25 25 -44 13 -18 32 -56 41 -84
9 -28 29 -73 44 -101 16 -27 34 -72 41 -100 6 -27 17 -59 24 -70 7 -11 24 -54
38 -96 14 -42 37 -99 50 -126 14 -27 33 -75 42 -107 9 -32 27 -81 39 -110 13
-28 31 -82 41 -121 10 -38 26 -86 35 -105 10 -19 25 -73 34 -119 9 -45 30
-116 47 -157 16 -41 29 -90 29 -109 0 -18 5 -46 11 -62 21 -57 60 -220 69
-293 5 -41 16 -91 24 -110 23 -60 49 -181 56 -270 4 -47 22 -164 40 -260 21
-118 34 -232 41 -348 4 -95 13 -190 18 -210 34 -130 36 -253 32 -2038 l-3
-1761 27 -61 c24 -55 32 -63 79 -83 28 -12 78 -25 111 -28 33 -3 548 -3 1145
0 597 4 2434 7 4083 7 l2997 1 50 27 c27 14 52 34 56 43 3 9 9 819 11 1801 5
1705 4 1864 -22 2242 -1 25 -6 51 -9 57 -10 16 -36 293 -36 387 0 44 -6 103
-14 130 -8 27 -17 112 -20 189 -8 174 -32 432 -51 545 -8 47 -19 140 -24 207
-6 67 -17 160 -25 205 -8 46 -20 115 -25 153 -5 39 -15 93 -20 120 -6 28 -16
91 -22 140 -6 50 -24 155 -39 235 -15 80 -31 165 -35 190 -4 25 -15 88 -26
140 -11 52 -26 132 -34 178 -8 46 -26 125 -40 177 -14 51 -25 108 -25 126 0
19 -5 50 -10 69 -26 85 -80 303 -80 320 0 19 -45 184 -54 199 -3 4 -10 39 -16
77 -6 38 -24 106 -40 151 -16 45 -31 103 -35 130 -3 26 -14 66 -24 88 -30 65
-43 107 -53 170 -6 33 -17 78 -25 100 -9 22 -26 68 -39 103 -13 35 -24 75 -24
90 0 15 -11 48 -24 73 -14 25 -36 85 -49 135 -14 49 -35 114 -46 144 -12 30
-26 78 -32 107 -5 29 -25 77 -44 109 -19 31 -39 82 -45 113 -13 70 -20 91
-115 316 -18 44 -41 105 -50 135 -9 30 -25 66 -35 80 -9 14 -31 66 -47 115
-44 131 -59 166 -108 270 -25 51 -45 98 -45 103 0 6 -13 40 -30 77 -16 37 -30
74 -30 83 0 8 -13 36 -29 61 -16 25 -32 64 -36 86 -3 22 -17 56 -30 76 -13 21
-32 61 -41 90 -10 30 -30 70 -45 89 -15 19 -35 62 -44 95 -10 33 -25 69 -34
80 -22 26 -38 62 -46 101 -3 17 -19 44 -35 59 -17 17 -33 46 -40 75 -6 26 -22
58 -35 70 -14 13 -32 46 -41 74 -9 28 -27 62 -40 76 -12 14 -28 46 -35 73 -6
26 -27 68 -46 92 -18 25 -40 62 -48 84 -7 21 -24 56 -37 77 -13 22 -31 55 -38
74 -8 19 -23 44 -33 55 -11 11 -26 36 -34 55 -8 19 -30 58 -47 85 -18 28 -57
95 -86 150 -29 55 -59 107 -65 115 -7 8 -33 55 -58 103 -25 48 -59 103 -75
121 -16 18 -52 77 -81 132 -30 54 -64 110 -76 124 -12 14 -28 42 -34 62 -7 21
-30 59 -52 85 -21 26 -39 53 -39 59 0 6 -12 21 -26 35 -14 13 -37 45 -49 70
-13 25 -35 59 -48 75 -14 16 -32 47 -41 68 -9 21 -29 54 -46 72 -16 19 -30 38
-30 42 0 4 -12 20 -27 36 -25 26 -63 81 -111 160 -9 16 -29 43 -43 60 -14 17
-38 51 -52 76 -15 25 -37 57 -50 71 -14 14 -36 43 -51 65 -57 84 -76 110 -98
134 -13 15 -45 60 -72 100 -28 41 -60 86 -73 100 -12 14 -33 39 -45 57 -13 18
-58 78 -101 135 -43 57 -81 108 -85 113 -4 6 -18 26 -32 45 -13 19 -34 46 -46
60 -95 108 -164 190 -184 220 -13 19 -36 46 -50 60 -29 29 -118 131 -152 175
-12 17 -33 38 -46 48 -12 10 -30 33 -39 50 -9 18 -46 62 -82 99 -69 69 -147
154 -208 226 -20 23 -48 50 -64 59 -15 9 -31 25 -36 36 -12 25 -103 123 -386
407 -125 127 -231 230 -237 230 -5 0 -71 60 -145 133 -74 72 -160 155 -190
182 -78 70 -95 88 -95 97 0 4 -13 14 -30 23 -16 8 -36 28 -44 43 -8 16 -33 36
-55 47 -23 10 -41 21 -41 25 0 12 -245 230 -258 230 -4 0 -23 14 -42 30 -19
17 -56 47 -82 67 -27 21 -48 40 -48 44 0 4 -19 18 -42 32 -24 14 -59 40 -78
58 -72 69 -213 180 -350 275 -135 93 -170 120 -189 145 -12 15 -38 34 -58 42
-21 9 -56 32 -77 51 -22 20 -47 38 -57 41 -9 3 -24 16 -33 29 -8 13 -38 32
-66 42 -32 11 -57 28 -67 44 -8 14 -34 34 -58 43 -24 10 -51 29 -59 42 -9 13
-36 33 -60 43 -24 11 -53 29 -64 40 -11 11 -44 32 -73 47 -29 14 -59 35 -67
46 -8 12 -35 29 -60 40 -24 11 -61 32 -81 47 -20 16 -52 35 -70 42 -19 8 -49
26 -66 41 -17 15 -51 36 -76 45 -24 10 -62 30 -84 44 -114 76 -152 98 -172
104 -11 4 -49 25 -82 46 -34 22 -65 40 -69 40 -4 0 -30 15 -57 33 -28 19 -66
39 -85 45 -19 7 -48 24 -64 38 -15 15 -51 35 -78 46 -28 10 -71 34 -96 53 -24
19 -50 35 -57 35 -20 0 -100 46 -128 74 -18 17 -37 26 -59 26 -40 0 -94 31
-103 59 -7 22 -17 26 -88 36 -35 5 -59 16 -85 39 -34 30 -115 66 -150 66 -8 0
-29 13 -46 28 -18 15 -59 36 -92 46 -32 10 -70 29 -85 42 -14 13 -36 24 -50
24 -27 0 -96 30 -137 58 -15 10 -58 28 -96 41 -37 12 -83 33 -100 46 -18 14
-38 25 -44 25 -20 0 -135 42 -171 62 -41 23 -246 104 -315 125 -27 8 -65 23
-85 34 -20 10 -41 19 -47 19 -7 0 -56 18 -110 39 -55 22 -115 42 -134 46 -19
4 -80 24 -135 45 -55 21 -125 43 -155 50 -30 7 -82 25 -115 40 -33 15 -76 30
-95 34 -40 6 -189 52 -238 72 -18 8 -52 14 -75 14 -24 0 -65 11 -95 25 -30 14
-59 25 -65 25 -6 0 -27 11 -47 25 -29 20 -58 28 -131 36 -119 13 -165 25 -209
54 -26 17 -56 25 -115 30 -87 7 -198 29 -258 51 -52 19 -119 34 -202 44 -118
15 -181 27 -206 40 -39 21 -131 39 -201 40 -37 0 -87 4 -110 9 -24 6 -92 17
-153 27 -60 9 -134 23 -164 30 -29 8 -99 16 -155 18 -56 2 -119 9 -141 14 -22
6 -79 13 -128 16 -48 3 -143 15 -210 26 -116 19 -219 26 -722 50 -121 6 -287
15 -370 21 -163 10 -640 19 -745 13z m850 -1859 c369 -2 654 -24 797 -61 72
-19 209 -33 348 -35 160 -3 349 -33 382 -60 7 -6 79 -15 160 -19 166 -10 216
-20 279 -55 36 -20 61 -25 143 -29 76 -3 124 -12 212 -39 63 -20 150 -41 194
-47 44 -6 125 -26 180 -44 103 -35 150 -45 246 -50 43 -2 69 -10 105 -33 37
-23 66 -33 119 -38 66 -7 154 -30 165 -44 12 -15 70 -41 91 -41 40 0 153 -32
187 -52 19 -12 65 -27 103 -34 43 -8 91 -26 127 -48 39 -23 74 -36 113 -40 59
-6 129 -30 129 -45 0 -15 75 -40 134 -44 36 -2 62 -9 67 -18 23 -41 37 -50 98
-60 71 -11 95 -21 129 -55 17 -16 45 -26 98 -35 60 -10 81 -18 115 -47 33 -29
52 -36 95 -40 45 -4 61 -11 95 -42 30 -27 54 -39 85 -44 24 -3 78 -24 120 -46
42 -22 84 -40 95 -40 10 0 33 -13 51 -29 40 -34 71 -51 95 -51 18 0 93 -36
103 -49 10 -13 60 -41 72 -41 7 0 44 -18 81 -39 37 -22 77 -43 89 -47 12 -4
44 -22 71 -40 27 -18 64 -36 83 -40 19 -3 56 -24 81 -45 26 -21 59 -41 73 -44
15 -3 51 -22 81 -41 30 -19 71 -39 92 -45 21 -5 49 -23 64 -39 14 -16 44 -35
68 -43 23 -8 63 -31 89 -51 26 -20 54 -36 62 -36 8 0 31 -15 51 -34 21 -18 58
-40 82 -47 34 -10 47 -20 57 -45 12 -28 21 -34 71 -45 40 -9 66 -22 85 -41 14
-16 41 -34 60 -40 18 -6 52 -28 75 -50 24 -21 52 -38 63 -38 11 0 37 -15 57
-34 21 -18 56 -43 78 -54 22 -11 55 -37 73 -56 19 -20 40 -36 48 -36 8 0 34
-18 58 -40 24 -22 51 -40 61 -40 25 0 70 -29 81 -53 5 -12 25 -30 45 -42 63
-35 143 -92 164 -115 22 -24 95 -75 183 -128 31 -18 62 -41 69 -52 7 -10 29
-28 47 -40 19 -11 38 -30 41 -41 4 -12 21 -27 38 -34 18 -7 45 -27 60 -43 16
-16 46 -37 67 -47 21 -9 43 -27 50 -40 7 -13 29 -31 50 -40 21 -9 44 -28 51
-42 7 -14 30 -33 50 -44 21 -10 45 -29 56 -41 10 -13 34 -35 53 -48 19 -13 43
-35 53 -47 10 -13 33 -31 50 -40 18 -8 62 -47 100 -85 72 -74 83 -107 48 -137
-10 -9 -26 -31 -35 -49 -9 -18 -28 -38 -41 -44 -13 -6 -29 -23 -35 -39 -7 -15
-26 -43 -44 -62 -17 -18 -49 -57 -71 -87 -44 -59 -106 -132 -167 -198 -22 -24
-44 -57 -50 -73 -5 -16 -19 -34 -29 -40 -10 -5 -26 -24 -35 -41 -9 -17 -26
-40 -39 -52 -12 -11 -25 -30 -29 -42 -3 -12 -24 -35 -46 -53 -22 -18 -40 -36
-40 -42 0 -9 -117 -151 -174 -210 -13 -14 -34 -42 -46 -61 -11 -20 -27 -38
-34 -41 -7 -3 -26 -27 -41 -54 -33 -57 -103 -133 -124 -133 -23 0 -97 51 -107
74 -5 11 -19 26 -32 32 -12 6 -40 29 -61 50 -65 64 -132 118 -162 131 -16 7
-37 26 -47 42 -9 17 -28 35 -43 40 -14 5 -38 22 -55 38 -16 16 -49 41 -74 55
-25 15 -51 37 -58 50 -7 13 -32 34 -55 46 -23 13 -51 37 -62 54 -12 19 -33 35
-52 40 -17 5 -40 19 -50 32 -10 13 -33 31 -51 40 -17 9 -39 27 -47 40 -8 12
-26 28 -38 33 -13 6 -44 28 -70 49 -62 52 -133 104 -180 131 -21 12 -45 30
-54 38 -9 9 -35 28 -57 42 -23 14 -56 39 -74 54 -18 16 -38 29 -44 29 -6 0
-34 17 -62 38 -28 22 -65 44 -82 51 -18 7 -41 23 -52 36 -12 14 -43 35 -69 49
-26 13 -57 33 -67 45 -11 12 -39 26 -62 32 -42 11 -67 28 -93 67 -8 11 -26 24
-40 27 -14 4 -48 21 -76 39 -27 19 -60 37 -73 40 -12 4 -43 25 -68 47 -25 21
-54 39 -66 39 -33 0 -82 28 -102 59 -14 20 -31 31 -56 35 -20 3 -54 19 -74 35
-21 17 -62 37 -92 46 -42 12 -59 23 -76 49 -20 30 -28 34 -77 38 -48 4 -59 10
-86 41 -21 24 -43 38 -70 43 -36 6 -82 28 -95 45 -10 13 -70 39 -90 39 -31 0
-86 26 -117 54 -15 14 -44 29 -63 32 -59 10 -68 14 -111 50 -22 19 -52 34 -65
34 -33 0 -86 23 -128 55 -20 16 -57 30 -95 36 -43 8 -73 21 -103 44 -27 22
-58 36 -87 40 -25 4 -70 20 -99 36 -29 16 -78 35 -110 43 -62 14 -92 28 -131
57 -13 11 -34 19 -47 19 -42 0 -158 43 -194 72 -26 21 -45 28 -77 28 -38 0
-203 51 -228 71 -6 4 -46 12 -90 18 -112 15 -150 27 -164 55 -12 21 -21 24
-104 29 -52 3 -109 13 -132 23 -54 23 -133 43 -234 59 -56 10 -111 27 -160 51
-72 35 -82 37 -196 41 -115 4 -235 26 -235 44 0 14 -71 27 -185 34 -124 7
-328 33 -363 46 -26 10 -229 34 -367 44 -145 11 -324 34 -345 45 -81 43 -1732
47 -1938 4 -101 -21 -213 -35 -339 -44 -229 -16 -355 -29 -414 -44 -62 -16
-247 -42 -364 -51 -96 -8 -147 -19 -240 -52 -56 -21 -97 -27 -205 -32 -126 -6
-137 -8 -170 -33 -38 -28 -83 -42 -170 -53 -30 -3 -80 -17 -110 -30 -66 -28
-192 -55 -263 -55 -38 0 -58 -6 -83 -25 -46 -35 -78 -46 -169 -56 -60 -7 -90
-17 -125 -38 -52 -33 -108 -51 -163 -51 -35 0 -66 -13 -144 -60 -17 -10 -57
-23 -87 -29 -60 -11 -96 -26 -96 -41 0 -10 -60 -31 -153 -53 -37 -9 -79 -26
-95 -37 -15 -11 -54 -25 -87 -31 -43 -8 -69 -19 -90 -39 -21 -20 -51 -34 -98
-45 -69 -16 -137 -43 -137 -56 0 -3 -32 -17 -71 -29 -39 -13 -85 -33 -102 -44
-35 -24 -76 -41 -120 -51 -16 -3 -51 -21 -77 -39 -27 -19 -73 -39 -102 -46
-64 -15 -97 -31 -122 -58 -10 -12 -32 -24 -50 -27 -17 -4 -47 -20 -67 -36 -20
-15 -59 -33 -85 -40 -34 -8 -59 -23 -84 -49 -27 -29 -46 -39 -82 -44 -27 -4
-48 -11 -48 -16 0 -14 -102 -70 -127 -70 -14 0 -28 -11 -39 -30 -18 -30 -76
-60 -115 -60 -12 0 -33 -13 -48 -29 -15 -16 -49 -40 -77 -54 -28 -14 -56 -32
-63 -40 -7 -9 -34 -23 -61 -33 -27 -10 -66 -34 -88 -53 -22 -20 -57 -42 -78
-50 -21 -8 -57 -29 -78 -47 -22 -19 -45 -34 -51 -34 -6 0 -22 -12 -36 -26 -13
-14 -47 -36 -76 -49 -29 -14 -59 -35 -68 -49 -9 -13 -35 -32 -58 -41 -23 -9
-65 -34 -93 -56 -28 -21 -55 -39 -61 -39 -5 0 -22 -13 -36 -30 -15 -16 -41
-37 -59 -46 -18 -9 -50 -32 -71 -50 -20 -19 -41 -34 -46 -34 -6 0 -30 -17 -54
-38 -24 -21 -58 -44 -75 -51 -17 -7 -34 -22 -38 -33 -3 -11 -28 -30 -54 -42
-27 -12 -60 -37 -75 -54 -15 -18 -33 -32 -42 -32 -8 0 -32 -18 -54 -39 -22
-22 -53 -44 -69 -51 -16 -7 -38 -27 -49 -45 -10 -18 -32 -38 -48 -45 -16 -7
-39 -28 -52 -47 -14 -22 -32 -36 -52 -40 -17 -3 -38 -17 -47 -32 -22 -35 -40
-48 -84 -67 -21 -9 -38 -21 -38 -26 0 -5 -19 -29 -42 -53 -24 -24 -49 -51 -56
-60 -8 -8 -27 -19 -44 -22 -17 -3 -34 -15 -40 -28 -12 -27 -57 -62 -89 -70
-32 -7 -88 28 -100 64 -6 15 -21 33 -35 40 -13 6 -27 19 -31 28 -15 43 -90
138 -126 160 -7 4 -20 21 -30 36 -10 15 -29 33 -42 39 -13 6 -29 23 -35 38 -6
15 -25 40 -41 56 -16 15 -29 32 -29 37 0 6 -21 33 -48 61 -54 59 -98 112 -142
174 -16 23 -34 42 -38 42 -8 0 -58 64 -95 120 -10 15 -31 33 -47 40 -16 7 -32
21 -35 31 -4 11 -29 45 -56 76 -27 31 -49 60 -49 64 0 4 -8 10 -18 13 -10 4
-26 24 -36 46 -10 22 -23 40 -29 40 -7 0 -36 27 -66 60 -41 47 -52 66 -47 84
7 27 141 161 182 182 16 8 43 29 59 47 17 18 65 57 107 87 42 30 81 65 87 78
6 12 31 31 56 42 26 11 50 30 56 44 7 15 29 31 56 41 24 9 51 28 60 42 9 13
34 33 55 44 21 11 43 30 48 43 5 13 27 34 49 47 23 12 41 26 41 30 0 4 26 24
59 43 32 20 65 43 72 52 8 9 30 27 49 39 19 12 50 36 69 54 18 17 37 31 42 31
6 0 28 17 50 38 23 20 48 41 57 46 10 5 36 26 59 48 24 21 51 38 60 38 10 0
30 11 45 24 14 14 43 34 64 45 21 11 47 31 59 44 11 13 43 36 70 50 28 14 62
39 78 56 15 16 41 32 58 36 16 4 50 24 75 46 25 21 55 39 66 39 11 0 35 16 53
35 23 24 48 38 80 45 59 13 85 27 85 44 0 18 30 43 62 51 15 4 43 22 63 41 20
18 52 38 72 43 20 6 50 23 67 39 17 16 54 37 81 46 28 9 62 29 77 44 14 16 43
34 65 40 21 6 51 23 66 36 16 14 59 37 97 51 37 14 78 37 90 50 13 14 48 34
78 45 29 11 68 31 85 44 18 14 46 28 62 32 17 4 53 22 82 41 29 19 68 39 87
44 20 5 48 20 63 33 33 28 87 56 105 56 8 0 38 16 68 35 30 20 72 38 93 42 21
3 55 18 76 34 43 31 118 59 158 59 16 0 38 13 63 38 33 35 43 40 100 45 43 4
71 12 89 26 38 32 102 61 133 61 34 0 75 17 111 47 31 25 86 43 135 43 39 0
72 15 72 34 0 16 31 32 90 46 25 7 65 22 90 34 53 26 129 52 183 61 20 3 68
21 105 40 37 18 96 39 132 45 36 6 99 26 140 45 41 18 93 36 115 39 56 10 105
26 105 36 0 15 80 40 158 49 55 6 87 15 114 33 27 18 61 28 130 37 51 7 139
28 195 47 56 19 137 39 180 45 75 10 141 26 228 54 60 19 152 34 217 34 41 0
71 8 110 27 67 33 111 42 273 53 82 6 141 15 160 25 75 38 278 66 485 66 57 0
127 8 175 19 207 48 384 61 879 67 187 2 342 7 345 10 3 4 195 3 426 -2 231
-5 494 -9 585 -9z m115 -3639 c154 -14 310 -26 347 -26 72 0 123 -7 363 -46
83 -13 197 -31 255 -38 58 -8 168 -28 245 -45 77 -17 153 -31 170 -31 16 0 64
-9 105 -19 41 -11 120 -31 175 -45 55 -14 115 -26 133 -26 18 0 74 -16 125
-36 50 -20 119 -40 152 -45 69 -10 140 -31 184 -53 16 -9 61 -23 98 -31 37 -8
93 -23 123 -34 30 -11 102 -36 160 -56 58 -19 123 -44 145 -55 22 -11 63 -24
90 -28 32 -5 69 -22 104 -45 29 -20 64 -37 77 -37 38 0 113 -29 157 -61 22
-16 50 -29 62 -29 33 0 85 -20 130 -50 22 -14 65 -32 96 -39 39 -8 66 -22 91
-45 23 -22 50 -36 77 -41 23 -4 63 -22 90 -41 27 -18 62 -36 78 -40 41 -10 95
-39 117 -63 11 -12 27 -21 36 -21 33 0 103 -30 128 -55 14 -14 46 -31 72 -39
26 -8 67 -28 91 -46 24 -17 64 -40 89 -51 24 -11 54 -28 65 -38 11 -11 45 -29
75 -42 30 -13 64 -32 75 -42 11 -10 38 -28 60 -39 22 -12 54 -31 70 -43 17
-13 46 -30 66 -38 19 -8 51 -28 70 -45 19 -16 50 -37 69 -46 33 -15 79 -45
174 -113 21 -15 52 -36 68 -45 17 -9 44 -31 61 -48 17 -17 45 -38 61 -47 17
-9 46 -29 64 -44 18 -16 37 -29 43 -29 5 0 29 -18 53 -40 24 -22 59 -47 79
-55 20 -8 44 -27 54 -41 9 -15 33 -33 53 -41 33 -14 90 -60 170 -136 19 -18
48 -40 64 -47 16 -8 35 -25 43 -37 8 -12 31 -32 51 -44 40 -23 57 -36 208
-167 238 -204 272 -234 324 -282 30 -27 58 -50 62 -50 3 0 98 -93 210 -206
291 -296 354 -360 440 -455 70 -77 98 -108 158 -179 12 -14 42 -47 67 -73 25
-27 65 -74 89 -105 97 -128 189 -240 240 -295 30 -31 64 -74 78 -95 13 -20 31
-44 40 -51 10 -8 24 -28 33 -45 17 -33 73 -107 107 -142 12 -11 46 -61 76
-109 30 -49 69 -103 86 -120 18 -17 40 -47 49 -66 10 -19 29 -45 42 -59 13
-14 48 -63 78 -110 30 -47 65 -98 77 -114 13 -16 30 -43 39 -60 8 -17 43 -70
76 -118 34 -47 71 -106 82 -130 27 -55 89 -161 124 -212 15 -21 27 -44 27 -51
0 -7 11 -23 25 -37 14 -14 31 -44 40 -67 8 -23 26 -57 40 -75 14 -19 31 -50
36 -70 5 -19 20 -48 33 -63 25 -31 56 -86 56 -102 0 -5 13 -29 28 -53 16 -24
36 -64 46 -89 9 -26 26 -55 37 -65 11 -9 27 -43 36 -73 8 -31 28 -71 44 -88
15 -18 31 -48 35 -67 3 -19 21 -59 40 -88 19 -29 37 -64 41 -78 3 -14 21 -50
39 -80 18 -30 37 -74 43 -98 5 -24 21 -61 35 -82 14 -21 28 -51 32 -67 9 -35
34 -90 56 -123 10 -14 25 -54 33 -90 9 -36 27 -82 41 -102 13 -20 29 -58 35
-85 7 -26 25 -75 40 -108 15 -33 33 -82 40 -110 7 -27 23 -68 37 -89 13 -22
35 -76 47 -120 13 -45 32 -108 44 -141 51 -152 74 -224 88 -280 8 -33 30 -105
48 -160 19 -55 38 -126 44 -157 6 -32 21 -86 35 -120 13 -35 29 -94 35 -133
13 -82 33 -162 56 -225 9 -24 21 -82 26 -128 5 -46 15 -96 23 -110 19 -39 43
-144 56 -252 7 -52 19 -111 27 -130 21 -50 53 -225 53 -291 0 -31 9 -98 20
-150 12 -52 23 -107 25 -124 11 -76 25 -197 30 -265 9 -121 15 -171 31 -245
39 -189 51 -593 54 -1758 2 -935 4 -904 -41 -928 -26 -14 -1598 -12 -1653 2
-22 5 -51 18 -64 27 l-23 18 1 899 c0 537 -3 930 -9 975 -6 41 -15 180 -21
309 -6 128 -17 268 -25 310 -20 107 -33 208 -45 332 -9 102 -41 305 -60 379
-5 19 -14 78 -21 130 -6 52 -22 127 -34 166 -13 39 -26 102 -30 140 -4 38 -18
110 -32 159 -14 50 -36 140 -49 200 -12 61 -33 139 -44 174 -12 36 -26 92 -31
124 -6 33 -25 98 -43 146 -19 47 -39 112 -45 144 -6 31 -22 77 -36 101 -14 25
-28 68 -32 97 -3 30 -15 72 -26 94 -26 52 -57 143 -57 168 0 11 -13 41 -29 66
-16 25 -35 69 -42 96 -7 28 -30 83 -51 123 -21 40 -38 82 -38 93 0 12 -18 58
-40 104 -22 46 -40 89 -40 97 0 7 -14 33 -30 58 -17 25 -35 61 -40 81 -6 20
-22 54 -37 75 -14 22 -36 64 -48 94 -12 30 -34 80 -48 111 -15 31 -27 63 -27
71 0 8 -14 35 -32 59 -17 24 -40 67 -51 94 -10 28 -23 55 -28 61 -13 16 -76
130 -106 194 -15 30 -36 69 -48 85 -12 17 -27 45 -34 64 -6 19 -22 48 -35 65
-13 17 -33 50 -44 72 -12 23 -32 55 -46 71 -14 16 -28 41 -31 56 -4 14 -18 39
-32 54 -14 15 -36 48 -49 74 -13 25 -31 52 -40 60 -8 7 -26 33 -39 58 -13 25
-35 57 -50 70 -14 13 -25 29 -25 36 0 7 -21 42 -47 78 -27 36 -64 89 -83 117
-19 29 -52 71 -72 96 -20 24 -39 53 -43 64 -3 11 -18 33 -33 49 -36 40 -79 93
-106 134 -13 18 -32 44 -43 58 -146 173 -182 216 -203 243 -14 17 -53 65 -88
106 -35 41 -80 95 -100 119 -21 24 -55 63 -77 86 -22 22 -76 81 -120 130 -44
49 -91 98 -104 109 -13 12 -33 31 -45 44 -11 12 -38 39 -58 60 -21 21 -38 43
-38 49 0 6 -12 21 -27 33 -49 38 -122 103 -214 190 -144 137 -150 142 -183
165 -17 12 -48 37 -69 56 -20 19 -56 51 -80 71 -23 21 -60 54 -82 74 -22 19
-52 42 -67 50 -14 7 -36 27 -48 44 -12 17 -35 37 -52 46 -37 19 -113 75 -171
125 -23 20 -58 44 -77 54 -19 10 -52 33 -73 51 -20 19 -40 34 -45 34 -4 0 -23
14 -42 30 -19 17 -53 39 -75 49 -22 10 -49 29 -60 41 -11 13 -40 31 -65 42
-25 11 -57 34 -72 52 -15 19 -40 36 -55 39 -15 3 -44 20 -63 36 -19 17 -48 36
-65 42 -16 7 -52 29 -80 49 -27 21 -65 42 -82 48 -18 6 -50 24 -70 40 -21 17
-49 33 -63 37 -29 9 -96 50 -105 64 -3 6 -23 15 -43 20 -20 6 -61 29 -91 51
-29 22 -60 40 -69 40 -8 0 -43 15 -76 34 -34 18 -79 39 -101 46 -22 7 -55 24
-74 38 -18 13 -56 33 -84 44 -28 11 -69 32 -91 48 -23 15 -64 33 -93 39 -29 6
-74 24 -101 41 -27 17 -74 39 -104 49 -30 10 -72 28 -95 39 -23 12 -72 30
-111 41 -38 10 -87 30 -108 45 -22 14 -65 29 -101 35 -35 5 -92 25 -132 46
-51 26 -93 40 -148 47 -55 7 -100 21 -153 48 -55 28 -92 39 -141 43 -68 6 -88
12 -176 54 -35 17 -81 28 -140 33 -88 9 -185 33 -255 64 -21 9 -61 16 -90 16
-64 0 -194 23 -347 61 -71 18 -139 29 -183 29 -66 0 -149 8 -453 46 -194 24
-586 37 -885 30 -317 -8 -437 -16 -720 -45 -113 -12 -245 -24 -295 -27 -86 -6
-210 -27 -340 -59 -33 -8 -123 -22 -200 -31 -76 -8 -157 -22 -180 -30 -91 -34
-178 -54 -230 -54 -43 0 -81 -10 -165 -45 -84 -34 -122 -45 -164 -45 -41 0
-71 -8 -128 -35 -43 -21 -108 -41 -158 -50 -62 -11 -96 -23 -126 -45 -24 -17
-70 -36 -109 -45 -37 -9 -92 -29 -122 -45 -30 -16 -71 -32 -91 -36 -60 -10
-103 -25 -140 -50 -19 -13 -53 -29 -76 -35 -22 -6 -68 -26 -101 -44 -33 -18
-76 -36 -95 -40 -19 -4 -63 -23 -98 -42 -34 -19 -86 -41 -115 -50 -28 -8 -68
-28 -88 -44 -19 -15 -60 -38 -90 -49 -30 -12 -58 -25 -64 -30 -6 -5 -35 -18
-65 -30 -30 -12 -69 -33 -87 -46 -18 -14 -62 -38 -98 -54 -36 -16 -80 -41 -99
-55 -18 -14 -37 -25 -43 -25 -5 0 -35 -18 -67 -41 -31 -22 -72 -45 -89 -50
-18 -5 -49 -24 -70 -42 -20 -19 -54 -39 -75 -45 -20 -6 -50 -24 -67 -38 -16
-15 -46 -33 -65 -41 -19 -8 -49 -30 -66 -48 -17 -19 -47 -38 -72 -44 -26 -8
-49 -22 -62 -42 -12 -16 -42 -39 -66 -51 -24 -11 -44 -24 -44 -28 0 -5 -24
-23 -52 -40 -29 -18 -70 -47 -91 -64 -93 -78 -116 -95 -176 -137 -35 -24 -74
-51 -87 -59 -12 -9 -38 -30 -56 -47 -51 -48 -120 -106 -158 -135 -19 -14 -68
-58 -109 -97 -40 -39 -78 -71 -84 -71 -6 0 -27 -15 -46 -34 -20 -19 -85 -79
-146 -133 -60 -55 -135 -125 -165 -156 -68 -70 -76 -79 -196 -197 -53 -52
-117 -117 -142 -145 -25 -27 -75 -82 -111 -121 -175 -190 -227 -248 -240 -271
-7 -14 -25 -38 -40 -53 -51 -52 -88 -95 -107 -125 -10 -16 -32 -44 -49 -61
-16 -17 -48 -55 -70 -84 -22 -28 -50 -61 -61 -73 -12 -12 -56 -73 -98 -134
-43 -62 -81 -115 -87 -118 -5 -4 -15 -21 -23 -38 -7 -18 -30 -49 -50 -70 -20
-21 -36 -44 -36 -51 0 -7 -11 -22 -25 -32 -14 -10 -36 -41 -49 -69 -13 -27
-33 -59 -45 -69 -12 -11 -30 -38 -41 -60 -11 -23 -28 -52 -38 -66 -36 -47
-112 -168 -112 -178 0 -6 -31 -58 -69 -115 -39 -58 -75 -124 -81 -145 -5 -22
-28 -66 -50 -98 -22 -33 -40 -64 -40 -71 0 -6 -10 -24 -23 -40 -13 -15 -29
-44 -37 -63 -7 -19 -26 -54 -42 -77 -16 -24 -35 -61 -43 -84 -8 -22 -24 -53
-35 -69 -11 -16 -27 -46 -34 -67 -12 -33 -86 -180 -139 -278 -9 -16 -17 -37
-17 -45 0 -8 -18 -46 -40 -84 -22 -37 -40 -76 -40 -85 -1 -21 -36 -98 -54
-116 -7 -8 -19 -42 -25 -77 -7 -41 -21 -78 -42 -107 -18 -27 -34 -64 -39 -97
-9 -54 -34 -114 -49 -114 -9 0 -31 -68 -31 -98 0 -11 -14 -46 -31 -78 -18 -34
-35 -86 -40 -122 -5 -34 -13 -70 -19 -80 -25 -45 -61 -147 -66 -190 -4 -26
-20 -78 -36 -116 -17 -39 -34 -97 -38 -131 -4 -34 -16 -79 -27 -101 -20 -39
-47 -142 -58 -222 -3 -23 -16 -76 -30 -117 -13 -41 -31 -120 -39 -175 -8 -55
-24 -133 -35 -172 -11 -40 -28 -131 -36 -203 -24 -185 -31 -231 -49 -310 -8
-38 -20 -124 -26 -190 -14 -164 -29 -306 -42 -395 -24 -171 -29 -374 -36
-1346 -7 -986 -8 -1023 -26 -1043 l-19 -21 -844 0 -845 0 -29 29 c-28 28 -29
34 -29 118 -5 1484 3 1851 46 2244 8 75 19 215 24 310 9 176 23 293 60 494 11
61 20 144 20 185 0 42 9 108 20 149 11 41 20 84 20 96 0 12 7 41 15 66 8 24
19 87 24 139 6 56 23 132 40 185 17 50 33 117 36 150 6 58 21 127 51 227 8 25
18 77 24 115 5 37 24 111 41 163 18 52 37 122 44 155 7 33 24 94 38 135 41
124 98 311 117 385 25 96 86 274 106 308 9 15 24 57 34 92 10 35 29 89 43 122
58 136 109 270 116 303 4 19 16 50 27 69 42 74 53 97 59 131 4 19 22 60 41 91
19 31 34 64 34 72 0 20 19 64 42 99 11 15 26 51 34 79 9 29 29 69 44 88 16 20
32 53 36 74 3 21 21 60 40 86 18 27 37 66 43 88 6 22 23 58 37 79 15 21 32 54
39 74 7 19 27 57 44 85 17 27 31 54 31 61 0 7 16 34 36 59 20 26 42 66 50 88
8 23 28 62 44 87 17 26 30 50 30 54 0 4 18 35 40 68 22 34 40 67 40 73 0 5 16
32 35 59 19 27 35 53 35 58 0 5 19 39 43 76 23 37 47 75 52 84 6 9 41 63 79
120 38 57 86 130 107 163 21 33 48 74 60 90 11 17 34 50 50 75 90 137 142 209
182 252 15 17 35 44 43 62 9 17 26 42 39 56 12 14 34 45 49 70 48 80 94 142
125 171 17 15 31 35 31 44 0 9 17 33 38 55 20 21 53 60 72 85 19 26 53 66 75
90 22 23 56 64 75 91 43 59 182 223 235 278 6 6 42 47 79 91 38 44 83 94 100
111 17 17 86 90 154 162 68 72 180 188 250 258 70 70 134 134 142 142 8 9 24
24 35 33 11 10 58 54 105 96 164 151 232 210 315 275 55 43 169 138 232 195
23 21 53 43 67 48 13 6 39 25 58 42 58 57 138 123 148 123 5 0 35 23 65 50 30
28 60 50 65 50 6 0 27 15 47 34 21 18 56 42 78 54 22 11 49 30 60 42 11 12 36
30 55 41 19 10 46 30 60 45 14 15 43 35 65 44 22 10 49 27 60 40 11 12 43 34
70 47 28 14 64 36 80 48 17 13 40 26 53 30 12 3 43 24 68 46 25 21 51 39 58
39 7 0 33 14 57 32 24 18 64 42 89 55 25 13 63 37 85 53 22 16 47 30 55 30 8
0 29 9 45 20 53 35 59 39 138 85 43 26 100 53 127 61 30 9 56 24 66 38 15 25
46 40 99 52 17 3 47 20 67 36 21 16 55 35 75 42 21 8 64 30 97 49 32 20 79 39
104 43 31 5 55 17 81 40 34 33 83 54 125 54 11 0 42 16 70 35 29 20 73 39 101
44 28 5 76 25 108 44 31 19 78 38 105 42 26 3 75 22 109 41 34 19 88 43 120
53 32 11 123 43 203 71 80 28 164 58 186 66 23 8 86 26 140 39 55 13 133 35
174 48 41 14 102 30 134 36 33 6 75 19 95 29 38 20 79 30 226 58 50 9 112 26
140 36 27 11 99 26 160 33 118 15 248 40 274 55 9 4 73 16 141 25 69 8 177 25
240 36 147 27 223 36 390 49 74 6 216 17 315 26 459 41 1142 41 1600 0z m9918
-1422 c-6 -17 -23 -9 -23 11 0 8 6 12 14 9 8 -3 12 -12 9 -20z m-21108 -264
c3 -5 1 -10 -4 -10 -6 0 -11 5 -11 10 0 6 2 10 4 10 3 0 8 -4 11 -10z m21592
-292 c-3 -8 -6 -5 -6 6 -1 11 2 17 5 13 3 -3 4 -12 1 -19z m-1197 -242 c0 -3
-4 -8 -10 -11 -5 -3 -10 -1 -10 4 0 6 5 11 10 11 6 0 10 -2 10 -4z m-71 -95
c-15 -5 -22 6 -14 19 6 9 10 9 16 -1 5 -8 4 -15 -2 -18z m1 -807 c0 -8 -4 -12
-10 -9 -5 3 -10 10 -10 16 0 5 5 9 10 9 6 0 10 -7 10 -16z m-22213 -481 c-3
-3 -11 -2 -17 2 -8 5 -7 11 2 22 12 15 13 14 16 -1 2 -10 1 -20 -1 -23z m1293
-1137 c0 -8 -4 -17 -9 -21 -12 -7 -24 12 -16 25 9 15 25 12 25 -4z m-170 -282
c0 -8 -4 -12 -10 -9 -5 3 -10 10 -10 16 0 5 5 9 10 9 6 0 10 -7 10 -16z m-70
-131 c0 -5 -4 -15 -10 -23 -11 -18 -25 -7 -17 15 6 15 27 21 27 8z m-2040
-441 c0 -22 -17 -48 -25 -40 -10 10 5 69 16 62 5 -3 9 -13 9 -22z m-240 -532
c0 -29 -4 -40 -15 -40 -18 0 -21 50 -3 68 17 17 18 16 18 -28z m1818 0 c-1
-16 -8 -30 -15 -30 -9 0 -9 7 -2 30 6 17 13 30 15 30 2 0 3 -13 2 -30z m23559
-332 c-3 -8 -6 -5 -6 6 -1 11 2 17 5 13 3 -3 4 -12 1 -19z m403 -1033 c0 -8
-2 -15 -4 -15 -2 0 -6 7 -10 15 -3 8 -1 15 4 15 6 0 10 -7 10 -15z m-26310
-281 c0 -31 -23 -28 -28 4 -2 15 2 22 12 22 11 0 16 -9 16 -26z m12520 -90 c0
-2 -7 -4 -15 -4 -8 0 -15 4 -15 10 0 5 7 7 15 4 8 -4 15 -8 15 -10z m-157 -85
c-8 -8 -16 -8 -30 0 -16 9 -14 10 12 11 21 0 26 -3 18 -11z m3913 -264 c3 -19
-10 -19 -25 -1 -9 11 -9 15 1 19 16 5 21 1 24 -18z m-14709 -172 c-3 -10 -5
-2 -5 17 0 19 2 27 5 18 2 -10 2 -26 0 -35z m10073 13 c0 -16 -27 -29 -41 -20
-13 8 9 34 27 34 8 0 14 -6 14 -14z m-230 -160 c0 -7 -7 -19 -16 -27 -13 -10
-17 -10 -25 2 -6 9 -3 18 8 27 22 16 33 15 33 -2z m16937 -103 c-3 -10 -5 -2
-5 17 0 19 2 27 5 18 2 -10 2 -26 0 -35z m-10692 -943 c0 -22 -29 -18 -33 3
-3 14 1 18 15 15 10 -2 18 -10 18 -18z m-2290 -130 c0 -7 -6 -15 -12 -17 -8
-3 -13 4 -13 17 0 13 5 20 13 18 6 -3 12 -11 12 -18z m2355 -10 c0 -5 -2 -10
-4 -10 -3 0 -8 5 -11 10 -3 6 -1 10 4 10 6 0 11 -4 11 -10z m10868 -216 c-3
-14 -5 -12 -10 9 -3 19 -2 25 4 19 6 -6 8 -18 6 -28z m-29061 -111 c-3 -10 -5
-4 -5 12 0 17 2 24 5 18 2 -7 2 -21 0 -30z m-20 -50 c-2 -16 -4 -5 -4 22 0 28
2 40 4 28 2 -13 2 -35 0 -50z m16781 -556 c5 -24 -15 -21 -21 4 -3 13 -1 19 6
16 7 -2 13 -11 15 -20z m-1978 -690 c19 -9 46 -23 60 -31 14 -8 41 -17 61 -21
22 -3 55 -22 88 -50 29 -25 59 -45 67 -45 18 0 143 -127 179 -183 16 -23 36
-53 45 -67 62 -94 80 -139 74 -179 -5 -32 -2 -48 19 -84 17 -29 29 -69 36
-122 6 -53 10 -3014 10 -8789 0 -4789 3 -8732 6 -8761 6 -46 4 -56 -15 -75
-20 -20 -29 -22 -75 -16 -29 3 -364 5 -746 4 -820 -2 -880 -1 -897 15 -10 10
-12 1728 -12 8632 1 4741 2 8721 3 8845 2 196 4 229 20 258 10 19 22 55 27 80
15 81 34 141 54 163 10 12 25 41 33 64 10 31 37 64 98 121 164 155 175 163
233 180 32 9 72 29 91 43 28 21 49 27 120 32 156 11 382 4 421 -14z m2277 -99
c-3 -8 -6 -5 -6 6 -1 11 2 17 5 13 3 -3 4 -12 1 -19z m-12807 -3921 c728 -3
733 -3 766 -46 8 -10 13 -1696 18 -6175 6 -5605 9 -6165 23 -6211 21 -65 54
-98 133 -130 l64 -27 2391 -4 2390 -3 62 39 c55 35 63 44 74 87 10 38 13 1340
16 6228 2 3399 6 6188 9 6198 3 9 13 21 22 26 9 4 233 9 497 10 264 0 642 4
841 7 l360 6 17 -25 c16 -25 17 -485 17 -7184 0 -3937 0 -7165 0 -7174 0 -9
-13 -22 -30 -29 -23 -9 -959 -12 -4302 -14 -4574 -1 -4328 -4 -4344 46 -3 11
-3 781 1 1712 7 1916 8 8561 1 10998 -4 1590 -4 1618 15 1642 24 30 37 32 164
29 55 -2 413 -5 795 -6z m4177 -2 c18 -3 41 -18 54 -33 20 -25 21 -35 15 -122
-11 -159 -27 -4707 -28 -7689 l0 -2814 -25 -25 c-22 -22 -30 -24 -76 -19 -29
4 -393 7 -810 7 l-757 1 -28 24 -27 23 -3 5244 c-1 2883 -3 5268 -4 5298 -1
67 8 99 32 108 22 8 1610 5 1657 -3z m19423 -3785 c0 -5 -7 -7 -15 -4 -8 4
-15 8 -15 10 0 2 7 4 15 4 8 0 15 -4 15 -10z m403 3 c-7 -2 -19 -2 -25 0 -7 3
-2 5 12 5 14 0 19 -2 13 -5z m127 3 c0 -8 -51 -13 -56 -5 -3 5 9 9 25 9 17 0
31 -2 31 -4z m343 -3 c-7 -2 -21 -2 -30 0 -10 3 -4 5 12 5 17 0 24 -2 18 -5z
m44 1 c-3 -3 -12 -4 -19 -1 -8 3 -5 6 6 6 11 1 17 -2 13 -5z m245 -6 c-8 -8
-23 -8 -54 -1 l-43 11 55 1 c41 1 51 -2 42 -11z m134 -97 c-22 -22 -41 -1 -31
36 l7 28 19 -24 c18 -22 18 -26 5 -40z m-3418 40 c18 -11 11 -45 -10 -49 -17
-3 -34 30 -23 48 7 12 16 12 33 1z m-7253 -3603 c121 -6 248 -10 282 -9 34 1
72 -3 84 -9 52 -28 49 106 49 -2473 0 -2348 0 -2393 19 -2442 42 -108 59 -133
98 -147 55 -19 4850 -20 4905 0 29 10 41 24 63 68 l27 55 -3 947 c-2 521 -3
1242 -4 1602 l0 655 23 43 c18 33 27 42 40 37 64 -25 276 -33 1089 -40 l502
-4 30 24 c16 14 33 25 37 25 5 0 22 -21 38 -46 l28 -45 -1 -2587 c-2 -2796 2
-2614 -52 -2643 -16 -8 -1073 -13 -4078 -20 -2231 -4 -4153 -6 -4272 -5 -200
4 -218 5 -237 24 -43 43 -45 70 -38 536 3 243 5 887 4 1431 -4 1531 2 4906 9
4940 6 32 29 73 50 91 17 15 973 9 1308 -8z"/>
<path d="M58112 21175 c-11 -14 -31 -26 -45 -27 -14 -1 -23 -7 -20 -12 4 -5
-1 -7 -11 -3 -9 4 -15 3 -12 -2 6 -10 -21 -24 -32 -17 -4 2 -23 -19 -42 -47
-43 -64 -88 -107 -115 -109 -40 -3 -71 -7 -93 -12 -13 -3 -82 -6 -153 -7 -73
0 -126 -5 -123 -10 3 -5 -4 -9 -14 -9 -11 0 -25 -7 -32 -15 -7 -8 -17 -12 -23
-8 -6 3 -7 1 -3 -6 5 -7 -3 -15 -22 -22 -19 -6 -32 -20 -36 -35 -4 -14 -10
-23 -15 -20 -4 3 -13 -6 -20 -20 -8 -19 -17 -25 -31 -21 -12 3 -29 -6 -49 -25
-21 -21 -38 -29 -58 -27 -15 2 -38 -2 -50 -9 -12 -7 -51 -12 -87 -12 -51 0
-66 -3 -66 -14 0 -8 -6 -21 -12 -28 -7 -7 -13 -22 -13 -32 0 -22 -42 -56 -72
-59 -12 0 -20 -4 -17 -8 9 -15 -67 -40 -108 -36 -50 5 -65 -7 -99 -76 -22 -45
-53 -74 -72 -69 -5 1 -6 -2 -3 -7 7 -11 -28 -25 -65 -26 -29 -1 -98 -63 -91
-83 4 -12 -32 -35 -41 -25 -4 3 -5 -7 -4 -23 1 -20 -3 -29 -13 -30 -8 0 -32
-8 -52 -17 -21 -10 -49 -18 -63 -19 -14 -1 -25 -6 -25 -11 0 -4 -4 -6 -9 -3
-9 6 -23 -18 -26 -46 -2 -10 -4 -20 -5 -23 -1 -3 -3 -15 -3 -27 -2 -23 -41
-69 -63 -72 -8 -1 -24 -11 -37 -23 -13 -11 -35 -23 -49 -26 -20 -5 -25 -12
-22 -34 2 -25 -14 -62 -27 -59 -3 0 -13 -7 -23 -16 -10 -10 -14 -18 -10 -18 4
0 -14 -20 -40 -45 -27 -25 -51 -45 -55 -45 -3 0 -22 -15 -41 -33 -25 -22 -34
-39 -32 -55 4 -26 -34 -75 -50 -66 -5 3 -7 2 -6 -3 4 -12 -34 -53 -44 -47 -4
3 -8 1 -8 -4 0 -5 -14 -15 -30 -22 -33 -14 -50 -37 -50 -69 0 -12 -4 -21 -10
-21 -5 0 -7 -7 -4 -15 4 -8 1 -15 -6 -15 -6 0 -8 -5 -4 -12 5 -7 2 -9 -7 -6
-10 4 -15 -1 -16 -14 -3 -29 -34 -60 -56 -54 -10 2 -21 -2 -24 -10 -3 -8 -9
-11 -14 -8 -5 3 -6 -2 -3 -10 3 -9 1 -16 -4 -16 -6 0 -9 -11 -6 -25 3 -16 -1
-27 -10 -31 -9 -3 -12 -12 -9 -21 4 -10 2 -14 -4 -10 -7 5 -9 0 -6 -13 4 -14
-4 -24 -28 -39 -18 -11 -35 -18 -39 -16 -3 2 -16 -18 -29 -45 -13 -27 -31 -57
-40 -67 -10 -10 -15 -25 -13 -32 3 -8 0 -11 -7 -7 -6 4 -11 2 -11 -4 0 -6 -6
-8 -12 -4 -7 4 -10 3 -5 -1 4 -5 1 -16 -7 -24 -8 -9 -16 -38 -17 -64 -2 -26
-6 -47 -10 -47 -9 0 -23 -68 -20 -102 1 -15 -1 -33 -5 -40 -5 -7 -9 -19 -10
-26 -5 -28 -14 -43 -24 -37 -5 3 -12 -6 -16 -20 -3 -13 -10 -22 -15 -19 -5 3
-9 0 -9 -6 0 -6 -3 -10 -7 -8 -5 2 -21 -10 -38 -26 -16 -16 -23 -26 -15 -21
13 8 13 7 1 -8 -8 -10 -14 -32 -13 -50 0 -17 -5 -38 -11 -46 -9 -11 -9 -13 0
-8 8 5 11 0 10 -13 -1 -11 -5 -20 -10 -20 -4 0 -6 -3 -3 -8 5 -9 -15 -38 -29
-40 -5 -1 -10 -8 -10 -14 -1 -7 -6 -12 -13 -11 -7 2 -11 -3 -9 -10 1 -6 -6
-11 -15 -11 -10 1 -16 -1 -14 -5 4 -7 -20 -32 -25 -26 -2 2 -3 -21 -2 -51 2
-42 -1 -54 -12 -54 -11 0 -15 -12 -15 -45 0 -25 1 -47 3 -49 6 -10 -38 -46
-50 -41 -8 2 -11 1 -8 -4 3 -5 1 -12 -4 -15 -5 -3 -7 -15 -4 -25 3 -10 -1 -22
-8 -26 -8 -6 -10 -4 -4 5 5 7 -3 5 -17 -6 -25 -18 -26 -24 -31 -149 -3 -71 -8
-148 -11 -170 -3 -22 -8 -51 -9 -65 -6 -39 -26 -70 -52 -80 -29 -11 -57 -71
-56 -117 0 -18 -4 -35 -9 -38 -6 -4 -10 -63 -10 -136 0 -76 -4 -129 -10 -129
-5 0 -7 -7 -4 -15 4 -8 2 -15 -3 -15 -5 0 -10 -21 -12 -47 -1 -27 -9 -59 -18
-72 -11 -17 -12 -21 -2 -16 8 5 5 -1 -5 -14 -11 -12 -26 -19 -33 -17 -7 3 -12
2 -10 -2 3 -11 -40 -55 -50 -49 -9 6 -8 -301 1 -310 9 -9 7 -25 -1 -20 -5 3
-7 -32 -6 -76 2 -59 -2 -92 -15 -117 -9 -19 -17 -39 -17 -45 0 -5 -8 -9 -18
-9 -9 1 -15 -2 -12 -6 5 -8 -24 -37 -33 -33 -2 2 -4 -40 -4 -92 1 -57 -3 -93
-9 -90 -5 4 -5 -5 1 -20 12 -33 13 -48 1 -41 -5 4 -7 -2 -5 -12 3 -9 -4 -27
-16 -39 -20 -22 -20 -26 -20 -1033 0 -888 2 -1013 15 -1026 8 -9 16 -34 17
-57 3 -65 5 -81 12 -98 4 -9 6 -64 4 -121 -3 -103 -3 -105 24 -128 15 -13 24
-28 21 -33 -3 -6 -1 -7 6 -3 6 4 14 0 17 -8 3 -9 9 -14 14 -11 10 6 13 -37 14
-267 1 -115 4 -208 9 -208 4 0 6 -3 6 -7 -3 -21 2 -33 15 -33 18 0 76 -66 76
-86 0 -8 5 -12 11 -9 7 5 9 -7 5 -39 -2 -25 -1 -46 3 -46 21 0 32 -93 29 -247
-2 -89 -1 -161 2 -161 25 2 43 -8 79 -41 22 -21 41 -43 42 -47 2 -24 10 -62
19 -94 5 -19 11 -84 12 -145 2 -66 7 -110 13 -110 14 0 83 -45 70 -45 -5 0 -4
-4 3 -9 7 -4 14 -18 15 -29 1 -12 4 -22 8 -22 11 0 22 -33 24 -78 2 -23 7 -48
12 -55 13 -16 15 -135 2 -142 -6 -4 -1 -20 11 -41 12 -18 19 -38 16 -43 -4 -5
6 -19 20 -30 15 -12 23 -21 19 -21 -4 0 6 -14 24 -31 18 -16 31 -38 29 -47 -5
-39 12 -71 40 -74 16 -2 26 -8 24 -16 -1 -8 2 -11 8 -7 7 4 14 -2 17 -13 3
-12 11 -18 18 -16 15 6 39 -31 30 -46 -3 -6 -1 -10 5 -10 6 0 8 -4 5 -10 -3
-5 -2 -10 4 -10 5 0 9 -18 7 -40 -2 -22 1 -37 5 -34 11 6 22 -58 17 -101 -2
-19 0 -35 5 -35 5 0 7 -11 5 -25 -3 -14 -1 -25 4 -25 17 0 79 -64 74 -77 -3
-6 1 -16 8 -22 8 -7 13 -29 12 -51 -1 -22 2 -40 7 -40 4 0 5 -5 2 -10 -4 -6
-3 -10 2 -9 13 3 43 -12 39 -20 -3 -4 5 -8 17 -8 26 -2 60 -41 53 -60 -3 -7
-1 -13 5 -13 6 0 9 -6 7 -12 -3 -7 1 -19 9 -26 7 -7 13 -31 13 -53 0 -33 6
-45 37 -72 20 -18 40 -31 44 -30 5 2 23 -18 40 -44 18 -25 26 -43 20 -38 -10
6 -11 3 -2 -14 7 -11 16 -21 20 -21 5 0 12 -11 15 -25 4 -14 11 -25 17 -25 6
0 7 -5 3 -12 -4 -6 -3 -8 3 -5 6 4 18 -2 28 -13 10 -11 24 -20 31 -20 18 0 63
-61 63 -85 1 -36 7 -60 16 -63 6 -2 24 -17 41 -33 17 -17 40 -32 50 -34 11 -1
18 -8 16 -14 -1 -6 2 -11 8 -11 5 0 10 -7 10 -15 0 -8 4 -15 10 -15 5 0 12
-15 16 -34 6 -37 22 -49 45 -35 23 15 47 10 71 -13 16 -16 17 -18 3 -8 -20 15
-20 15 -1 -7 10 -13 22 -20 27 -17 5 3 29 -14 54 -37 39 -36 45 -46 42 -75 -2
-18 -1 -33 2 -32 18 2 32 -3 28 -9 -3 -5 8 -8 24 -9 35 -1 62 -22 56 -44 -3
-13 1 -16 21 -12 17 3 23 1 18 -7 -4 -6 2 -15 16 -20 16 -6 29 -23 38 -50 13
-40 15 -41 57 -41 56 0 70 -8 112 -64 19 -25 38 -43 43 -40 4 3 8 0 8 -6 0 -6
5 -8 10 -5 6 4 10 -5 8 -24 -1 -20 5 -38 20 -54 12 -13 22 -27 22 -31 0 -16
57 -55 81 -56 30 0 79 -35 79 -55 0 -8 6 -12 13 -10 17 6 51 -21 42 -34 -3 -6
-1 -11 5 -11 6 0 8 -4 5 -10 -4 -6 1 -7 12 -3 10 3 15 3 11 -2 -4 -4 0 -14 8
-22 8 -9 13 -22 10 -29 -3 -9 0 -11 11 -7 10 4 14 2 10 -3 -4 -6 6 -9 23 -6
17 2 38 1 47 -3 26 -11 43 -15 93 -22 50 -6 73 -20 63 -36 -3 -5 -2 -8 3 -4
16 9 47 -21 47 -47 0 -14 5 -24 11 -23 6 1 10 -2 9 -8 -1 -6 28 -11 64 -13 40
-2 72 -9 80 -18 13 -12 130 -22 182 -14 8 1 17 -4 22 -11 5 -8 26 -12 59 -10
37 2 50 -1 45 -9 -4 -7 1 -14 14 -17 12 -3 21 -10 21 -15 0 -5 4 -7 9 -3 5 3
16 -1 24 -9 8 -8 17 -13 20 -10 6 7 32 -37 29 -49 -1 -5 2 -6 8 -2 5 3 13 -1
16 -9 3 -9 10 -13 15 -10 5 3 9 0 9 -7 0 -8 6 -6 18 4 17 16 88 17 823 16 442
-1 815 -4 829 -8 36 -11 83 20 85 54 0 6 8 9 17 9 10 -1 16 1 15 5 -1 3 0 6 3
6 3 0 19 10 36 22 16 12 42 25 57 28 15 4 27 11 27 15 0 4 19 8 43 7 158 -1
231 6 251 25 17 16 33 19 86 16 36 -1 70 1 77 5 7 4 24 5 39 1 19 -5 25 -4 20
5 -4 6 -1 11 8 11 9 0 15 3 14 8 -4 14 23 53 33 47 5 -4 8 -3 7 2 -2 5 8 20
21 33 13 14 20 18 16 10 -7 -12 -6 -13 6 -4 8 7 32 14 54 17 22 3 53 9 69 13
18 4 27 3 23 -3 -8 -12 50 -9 86 6 15 6 27 16 28 23 2 33 9 53 22 63 7 5 12
15 10 21 -2 6 4 17 14 25 16 12 17 12 8 -1 -6 -10 -3 -9 6 2 9 9 26 16 37 13
11 -2 23 3 26 11 3 9 20 14 46 14 24 0 48 7 56 15 16 15 49 21 41 8 -3 -5 6
-8 19 -8 17 0 28 8 37 28 6 15 17 25 24 23 6 -3 14 2 17 10 3 9 10 12 16 9 6
-4 10 8 10 29 0 20 4 36 9 36 6 0 8 9 6 20 -2 11 0 18 6 15 5 -4 9 -2 9 4 0 5
9 13 20 16 11 4 18 10 15 15 -3 5 4 15 15 23 11 7 18 16 15 19 -3 3 6 10 21
16 20 10 24 10 18 0 -5 -9 -2 -8 9 1 10 8 34 16 54 18 19 2 44 8 55 14 10 5
22 8 26 5 4 -2 9 7 10 21 3 34 21 56 43 50 12 -3 16 0 12 9 -7 19 25 66 39 58
6 -4 8 -3 5 3 -10 16 15 32 45 29 15 -2 25 1 22 5 -3 5 24 9 60 9 36 0 66 4
66 8 0 5 7 17 16 28 8 10 12 12 8 4 -4 -9 -3 -12 2 -7 5 5 9 16 9 25 0 9 5 16
12 15 7 -2 10 6 8 17 -3 14 5 26 23 37 15 10 30 23 35 30 4 7 23 15 42 19 30
5 35 10 35 35 0 20 11 38 35 60 19 18 35 37 36 43 0 6 19 26 41 44 36 28 49
33 88 31 25 -2 51 1 58 5 9 5 12 69 12 237 0 155 3 228 10 224 12 -7 9 17 -3
26 -10 7 2 61 12 54 10 -6 6 103 -4 134 -5 15 -5 22 2 18 14 -9 9 28 -6 47 -8
10 -11 28 -6 54 5 29 2 42 -9 52 -17 14 -22 55 -6 45 12 -7 12 -2 10 84 -1 42
2 61 9 57 7 -4 8 -1 5 8 -3 9 -1 16 4 16 6 0 9 11 6 25 -5 29 23 78 40 68 6
-3 8 -3 4 1 -3 4 1 16 9 26 18 20 25 111 10 121 -5 4 -10 29 -11 55 0 27 -7
55 -13 62 -7 7 -14 25 -15 40 -3 62 -5 115 -8 264 -2 86 -7 155 -11 153 -10
-7 -22 24 -25 68 -2 22 1 35 6 32 6 -4 6 3 0 20 -6 16 -10 709 -10 1916 0
1040 -2 1895 -6 1900 -3 5 -10 7 -15 4 -5 -4 -9 0 -9 7 0 11 -307 13 -1717 10
-1171 -1 -1720 -6 -1729 -13 -9 -7 -10 -19 -3 -41 5 -18 7 -34 4 -36 -2 -3 0
-13 5 -23 6 -10 7 -20 3 -22 -5 -3 -6 -554 -3 -1226 4 -1074 7 -1222 20 -1235
13 -14 91 -16 606 -16 325 0 594 -3 598 -7 3 -3 21 -7 41 -8 36 -1 80 -39 68
-58 -3 -5 -1 -7 4 -4 6 4 13 0 17 -8 3 -8 13 -15 22 -15 19 0 85 -60 78 -72
-3 -4 2 -8 11 -8 9 0 13 -4 10 -10 -3 -5 -2 -10 3 -10 5 0 9 -17 8 -37 -2 -21
3 -45 10 -53 10 -12 14 -70 14 -223 1 -127 5 -205 11 -201 10 6 40 -56 33 -67
-2 -4 3 -10 12 -13 9 -3 14 -13 10 -21 -3 -8 2 -21 10 -30 12 -11 15 -30 12
-69 -1 -30 0 -52 5 -49 4 2 8 1 8 -4 8 -57 7 -74 -4 -79 -8 -3 -12 -25 -11
-67 1 -46 -3 -69 -17 -89 -11 -14 -19 -29 -19 -33 0 -4 -9 -20 -21 -36 -11
-16 -18 -33 -14 -38 3 -5 1 -12 -5 -16 -5 -3 -10 -17 -10 -31 0 -13 -4 -24 -9
-24 -5 0 -7 -8 -4 -18 2 -10 -2 -24 -10 -31 -8 -6 -13 -20 -10 -30 5 -21 -17
-71 -41 -90 -8 -7 -24 -13 -35 -14 -12 -1 -21 -5 -21 -10 0 -4 -4 -5 -10 -2
-5 3 -10 0 -10 -8 0 -15 -35 -36 -60 -35 -30 0 -76 -8 -89 -17 -10 -6 -12 -4
-6 6 7 11 6 12 -6 3 -20 -16 -209 -19 -209 -3 0 9 -4 8 -15 -1 -8 -6 -18 -9
-24 -6 -5 3 -11 0 -14 -8 -3 -7 -18 -17 -33 -20 -31 -8 -77 -52 -69 -66 3 -5
-5 -16 -19 -25 -13 -9 -26 -25 -29 -36 -3 -12 -10 -18 -15 -15 -5 3 -14 -6
-20 -19 -12 -26 -27 -32 -37 -15 -4 6 -17 4 -36 -6 -17 -8 -37 -13 -45 -10 -8
3 -13 2 -10 -3 3 -4 -22 -9 -55 -10 -45 -1 -59 1 -53 10 5 9 3 9 -7 3 -17 -11
-560 -14 -554 -3 6 9 -22 6 -31 -4 -4 -4 -14 -1 -22 6 -11 8 -13 8 -9 0 5 -7
0 -9 -13 -6 -11 3 -18 8 -15 12 2 4 -6 6 -18 5 -12 -1 -22 -3 -22 -4 0 -2 -11
-4 -25 -5 -27 -3 -53 12 -45 25 3 5 1 11 -5 15 -6 4 -7 11 -4 17 4 7 2 8 -4 4
-7 -4 -12 -3 -12 2 0 6 -9 8 -21 5 -15 -4 -22 0 -26 16 -3 11 -10 21 -15 21
-5 0 -6 6 -2 13 4 6 3 9 -1 4 -13 -11 -45 23 -45 48 0 11 5 26 11 32 7 7 2 14
-21 21 -17 6 -28 7 -25 2 3 -6 -62 -9 -165 -9 -129 1 -174 4 -184 15 -8 7 -20
15 -27 16 -8 2 -21 10 -29 18 -8 8 -24 17 -35 18 -26 5 -46 22 -39 33 3 5 0 9
-7 9 -7 0 -9 3 -6 7 4 3 -2 13 -13 20 -11 8 -18 19 -14 24 3 5 0 8 -7 7 -7 -2
-14 6 -16 17 -4 33 -8 49 -17 64 -6 10 -5 12 2 7 7 -4 12 -5 12 -1 0 8 -53 29
-68 26 -7 -1 -15 5 -18 13 -3 9 -9 14 -13 12 -4 -3 -22 12 -41 32 -19 20 -28
32 -20 27 14 -9 14 -9 0 5 -8 8 -21 28 -28 43 -6 15 -17 25 -22 22 -6 -4 -9
-1 -8 7 2 9 -11 14 -40 16 -23 2 -40 7 -37 13 4 5 1 9 -5 9 -6 0 -8 5 -4 12 4
6 3 8 -4 4 -6 -3 -17 1 -26 9 -8 9 -18 15 -21 14 -16 -4 -46 11 -40 21 4 6 1
9 -7 8 -7 -2 -12 3 -10 10 1 6 -3 12 -9 12 -5 0 -8 4 -5 8 6 10 -4 24 -29 38
-11 6 -20 17 -20 25 0 8 -4 17 -9 21 -6 4 -6 16 1 30 9 21 8 24 -10 25 -11 1
-24 8 -28 15 -5 7 -9 9 -9 4 0 -6 -6 -1 -14 9 -8 11 -12 23 -10 27 3 5 0 8 -6
8 -7 0 -10 7 -6 15 3 8 2 14 -2 14 -23 -4 -42 3 -40 14 2 6 -2 11 -9 10 -11
-2 -12 21 -1 33 10 9 -3 35 -13 28 -5 -3 -17 0 -26 5 -10 6 -14 11 -9 11 5 0
-3 9 -18 21 -14 11 -26 25 -26 31 0 12 -39 63 -48 63 -4 0 -6 6 -6 13 1 6 -3
12 -8 12 -6 0 -8 8 -5 19 3 14 -6 23 -40 40 -25 12 -47 31 -50 41 -3 11 -9 20
-14 20 -5 0 -9 5 -9 10 0 6 -9 19 -20 30 -12 12 -20 33 -20 53 0 18 -4 37 -9
43 -5 5 -12 20 -16 33 -5 18 -4 22 6 16 8 -3 1 5 -16 19 -57 50 -64 58 -65 85
0 14 -2 55 -3 91 -2 50 -6 67 -19 72 -14 6 -17 23 -17 123 1 64 -3 120 -7 123
-4 4 -4 1 1 -7 5 -9 4 -12 -3 -7 -6 3 -11 24 -10 45 1 56 -11 82 -49 116 -23
20 -36 41 -38 60 -1 17 -7 41 -13 55 -5 14 -9 84 -8 157 0 72 -2 129 -6 126
-5 -2 -8 -1 -9 4 0 4 -3 17 -5 28 -3 11 -7 31 -9 45 -3 14 -8 39 -11 56 -3 18
-1 41 5 52 9 16 7 19 -7 18 -14 -1 -17 8 -17 51 0 28 -4 49 -9 45 -5 -3 -7 2
-3 11 3 9 3 16 -1 14 -4 -1 -17 5 -30 14 -23 16 -31 38 -36 94 -2 17 -10 47
-19 68 -11 25 -12 35 -4 30 7 -4 7 0 -2 10 -9 11 -10 17 -2 17 8 0 11 127 10
458 0 428 3 518 20 508 3 -2 6 17 5 42 -2 61 4 75 28 68 11 -2 17 -2 14 1 -3
4 4 14 17 22 18 13 22 25 22 63 0 27 -4 48 -9 48 -7 0 -6 20 6 98 1 6 5 12 10
12 5 0 7 4 4 8 -3 5 2 19 11 32 9 13 16 42 16 69 0 25 4 54 9 64 5 10 11 49
12 86 2 37 7 74 12 82 4 8 10 23 11 34 2 11 18 34 36 51 31 29 39 49 39 107 0
15 4 27 9 27 5 0 8 3 8 8 -1 4 -1 27 0 51 1 36 4 42 18 37 10 -4 14 -4 11 0
-4 4 -2 16 4 28 7 11 11 24 10 29 -1 4 3 7 9 7 5 0 8 4 4 9 -3 5 -1 12 5 16 6
4 8 11 5 16 -4 5 1 9 9 9 9 0 16 7 16 15 0 8 5 15 11 15 5 0 7 5 4 10 -3 6 -1
10 5 10 6 0 9 4 5 10 -3 5 4 26 15 47 11 21 20 46 20 55 0 10 3 18 8 18 4 0 6
19 4 41 -5 44 16 122 29 113 4 -2 6 4 4 15 -2 11 3 25 11 31 7 7 11 17 8 22
-8 13 17 59 28 52 5 -3 8 -2 7 3 -4 24 5 35 40 49 22 9 44 26 52 42 7 15 15
31 18 36 2 5 -1 6 -8 2 -8 -5 -11 -1 -9 16 5 34 18 50 37 45 10 -2 18 1 18 7
0 6 11 29 25 52 17 25 23 46 18 54 -9 15 9 52 22 44 4 -3 8 0 8 6 0 6 4 9 8 6
5 -3 9 8 10 24 1 39 8 50 32 45 10 -2 24 3 30 11 7 7 16 11 21 8 5 -3 8 0 7 7
-4 17 100 43 116 29 10 -7 21 -3 41 16 16 15 35 24 46 21 10 -3 17 0 16 7 -1
6 3 10 10 9 8 -2 10 4 6 14 -4 11 -3 14 5 9 7 -4 10 -2 7 6 -6 16 14 46 35 50
8 2 21 9 28 16 8 7 17 10 21 8 4 -3 8 4 8 15 1 10 -2 19 -8 19 -14 0 -11 30 6
46 8 9 19 13 23 10 5 -3 18 15 31 40 14 30 27 44 35 41 15 -6 49 26 59 55 4
13 26 18 101 23 52 4 106 5 120 1 20 -5 28 -1 42 23 10 17 21 28 26 25 4 -3 8
1 8 8 0 8 9 14 20 15 11 1 18 -2 15 -7 -6 -10 35 -1 51 11 6 5 14 7 17 4 4 -3
5 -2 3 1 -8 11 18 32 33 26 9 -3 12 -1 7 6 -3 6 4 18 16 26 12 9 18 16 13 16
-6 0 3 7 19 15 15 8 33 12 40 8 6 -3 8 -3 4 2 -4 4 -3 16 2 25 12 23 1 22 630
23 690 1 636 3 681 -33 21 -16 42 -30 48 -30 6 0 15 -10 22 -21 9 -17 8 -20
-3 -14 -7 3 -5 0 4 -8 10 -8 14 -18 10 -22 -4 -5 -1 -5 5 -1 17 9 54 -26 56
-53 1 -11 9 -24 19 -27 11 -3 15 -10 11 -17 -4 -7 0 -7 10 1 9 8 25 11 36 7
10 -3 46 -7 79 -10 34 -2 72 -11 86 -20 16 -11 26 -13 26 -6 0 6 9 11 21 11
30 0 61 -19 53 -33 -4 -7 -4 -9 0 -5 14 12 90 -57 80 -74 -4 -7 -3 -8 4 -4 7
4 12 2 12 -3 0 -6 3 -10 8 -10 25 4 52 -3 52 -14 0 -7 9 -18 20 -25 12 -7 18
-17 15 -22 -6 -10 14 -14 49 -10 12 1 16 -2 11 -11 -5 -7 -4 -10 3 -6 15 10
42 -3 42 -19 0 -7 16 -16 35 -20 40 -7 42 -9 49 -49 3 -16 11 -32 18 -37 7 -4
9 -8 5 -8 -4 0 8 -17 28 -37 23 -23 34 -44 32 -55 -6 -20 6 -30 36 -32 20 -1
22 -5 31 -76 3 -19 5 -37 6 -40 2 -3 2 -8 2 -11 -1 -3 4 -6 11 -7 7 0 25 -3
40 -5 21 -3 27 -1 23 9 -3 8 -1 14 4 14 5 0 7 21 4 48 -5 42 -3 50 25 80 19
21 28 38 24 49 -5 12 -3 14 7 8 9 -5 11 -4 6 4 -9 15 21 64 34 56 6 -3 7 0 4
8 -6 17 34 49 49 40 6 -3 8 -2 5 3 -9 14 11 56 22 49 6 -4 9 -1 8 7 -2 7 2 12
7 11 6 -1 10 15 9 35 -3 46 11 82 31 82 9 0 13 5 10 11 -4 6 2 20 13 32 23 25
37 64 33 91 -1 10 2 15 7 12 6 -3 9 2 8 11 -3 19 15 43 27 36 4 -2 6 -1 5 4
-5 19 24 55 42 50 15 -4 17 1 13 38 -4 38 -1 45 30 71 19 15 32 34 30 41 -5
12 8 18 30 14 4 0 7 8 7 20 0 22 10 34 55 66 23 16 31 30 33 55 1 19 5 45 8
58 3 14 6 30 6 37 1 7 14 15 30 18 15 4 26 10 23 15 -5 7 24 38 32 33 1 -2 3
0 4 5 0 4 9 17 20 28 17 18 20 37 23 135 1 63 6 125 10 139 4 14 8 34 7 44 0
23 37 58 52 49 6 -4 8 0 5 9 -6 15 30 55 45 50 4 -1 7 3 7 8 0 6 9 10 20 10
16 0 20 7 20 34 0 28 6 38 29 52 18 10 27 23 24 31 -3 9 3 16 15 20 11 3 25
18 31 34 5 16 17 29 25 29 11 0 16 10 16 34 0 35 35 90 51 81 5 -4 9 -2 9 3 0
6 11 13 25 16 16 4 23 11 19 18 -5 8 -2 9 10 5 9 -4 15 -3 12 2 -3 5 2 15 11
22 11 10 14 10 9 2 -5 -9 -2 -11 8 -7 9 3 12 12 9 21 -4 9 -2 14 3 10 6 -3 8
23 6 66 -3 85 -32 158 -60 151 -9 -3 -30 7 -46 21 -16 14 -26 25 -21 25 4 0
-4 11 -19 25 -14 13 -26 32 -26 42 -1 25 -22 51 -38 45 -10 -3 -12 4 -9 27 3
20 1 31 -6 31 -19 0 -76 64 -77 86 -1 44 -5 62 -12 58 -4 -3 -16 3 -26 13 -10
10 -27 19 -37 21 -11 2 -27 12 -36 22 -9 11 -20 16 -24 12 -5 -4 -5 -2 -2 4 4
7 0 17 -7 23 -9 8 -13 25 -10 47 7 56 -7 72 -61 68 -30 -3 -54 2 -70 12 -25
17 -31 17 -56 4 -16 -9 -53 22 -41 35 4 3 -1 3 -10 0 -19 -7 -58 27 -58 50 0
8 -4 15 -9 15 -10 0 -72 96 -66 102 4 3 -17 7 -70 11 -11 1 -24 12 -31 24 -6
13 -18 31 -27 41 -10 10 -14 22 -10 26 5 4 1 6 -7 4 -11 -2 -16 7 -18 34 -2
20 -10 39 -18 42 -7 3 -14 1 -14 -4 0 -6 -7 -10 -15 -10 -8 0 -15 3 -15 8 0 4
-22 5 -48 4 -32 -3 -54 1 -63 10 -8 8 -22 17 -31 21 -11 4 -15 12 -12 22 4 9
3 15 -2 13 -14 -4 -55 22 -49 31 3 5 -2 11 -10 14 -8 4 -12 15 -10 26 7 35
-18 43 -146 44 -88 2 -124 6 -127 15 -2 6 -8 9 -13 6 -6 -3 -16 -1 -24 6 -7 6
-26 13 -42 14 -15 2 -31 4 -35 5 -3 0 -5 15 -3 31 2 17 1 29 -3 26 -9 -5 -71
26 -72 37 0 4 0 13 0 20 0 6 -15 27 -32 46 l-31 34 -172 -2 c-171 -2 -249 4
-240 19 3 4 -3 7 -13 6 -10 0 -16 5 -14 14 2 8 1 12 -3 9 -3 -4 -25 3 -48 16
-33 17 -42 28 -42 48 1 14 -4 25 -10 24 -5 -1 -9 3 -8 10 3 14 -63 46 -102 48
-47 3 -85 16 -85 30 0 7 -7 16 -15 19 -22 8 -1073 8 -1087 0 -7 -4 -8 -3 -4 4
13 22 -2 12 -22 -13z"/>
<path d="M69174 21192 c-6 -4 -13 -15 -17 -24 -5 -13 -17 -18 -47 -18 -22 0
-55 -6 -73 -14 -33 -14 -115 -94 -135 -132 -7 -12 -26 -25 -44 -28 -80 -16
-148 -24 -213 -25 -76 -1 -95 -11 -95 -48 0 -12 -9 -30 -19 -40 -11 -10 -22
-30 -26 -45 -4 -16 -11 -28 -16 -28 -4 0 -23 -13 -41 -29 -40 -34 -57 -40
-123 -42 -56 -2 -75 -12 -75 -41 0 -11 -13 -32 -29 -47 -16 -15 -30 -36 -32
-46 -5 -22 -44 -37 -145 -56 -46 -8 -65 -17 -73 -33 -26 -47 -38 -63 -85 -108
-26 -27 -54 -48 -62 -48 -9 0 -14 -11 -14 -28 0 -17 -9 -37 -21 -48 -11 -10
-27 -33 -34 -50 -9 -21 -22 -33 -41 -37 -16 -4 -34 -10 -39 -14 -12 -10 -55
-96 -55 -111 0 -14 -82 -92 -97 -92 -20 0 -53 -51 -53 -81 0 -20 -13 -42 -40
-71 -30 -32 -40 -51 -40 -76 0 -37 -67 -138 -122 -182 -72 -59 -78 -67 -78
-114 0 -37 -6 -51 -30 -76 -17 -17 -30 -41 -30 -55 0 -19 -5 -25 -23 -25 -48
0 -55 -16 -59 -151 -5 -134 -6 -137 -74 -203 -11 -12 -24 -41 -28 -65 -4 -24
-13 -56 -21 -72 -11 -21 -15 -66 -15 -183 0 -173 -10 -230 -52 -294 -15 -24
-28 -56 -28 -72 0 -16 -4 -32 -10 -35 -7 -4 -10 -281 -10 -799 0 -755 1 -794
18 -809 10 -10 24 -17 30 -17 7 0 12 -9 12 -20 0 -11 9 -34 20 -52 18 -30 20
-51 20 -258 0 -173 3 -230 14 -245 7 -11 21 -44 31 -73 9 -29 33 -74 52 -99
35 -46 35 -47 41 -168 5 -121 5 -122 32 -132 50 -19 99 -108 119 -218 4 -22
12 -49 18 -59 6 -10 8 -27 5 -38 -3 -13 3 -21 27 -29 29 -10 44 -29 71 -88 5
-12 18 -30 28 -40 10 -9 26 -41 35 -72 15 -51 57 -109 78 -109 12 0 49 -66 49
-88 0 -12 14 -35 30 -52 17 -17 30 -34 30 -39 0 -5 14 -11 30 -14 17 -4 30
-13 30 -21 0 -8 14 -28 30 -44 26 -27 30 -38 30 -86 0 -50 3 -58 25 -68 13 -6
27 -19 30 -28 3 -10 18 -23 33 -29 15 -6 32 -21 37 -34 6 -12 20 -26 31 -32
12 -6 29 -17 38 -24 9 -7 25 -11 37 -8 29 8 103 -32 124 -65 9 -16 22 -28 29
-28 7 0 21 -18 31 -40 19 -43 24 -45 106 -55 33 -3 64 -14 76 -24 11 -10 29
-22 41 -25 15 -5 22 -15 22 -31 0 -14 9 -29 20 -35 11 -6 26 -23 35 -39 14
-28 15 -29 122 -33 95 -4 115 -8 161 -33 36 -19 54 -36 59 -54 3 -14 15 -33
26 -41 13 -11 21 -33 25 -69 l5 -52 97 6 c68 5 99 4 104 -4 4 -6 29 -11 55
-11 31 0 53 -5 61 -15 7 -8 21 -15 31 -15 10 0 21 -4 24 -10 3 -5 16 -10 29
-10 21 0 86 -56 86 -75 0 -4 11 -23 25 -40 22 -29 31 -33 87 -38 35 -2 81 0
104 6 33 8 47 7 74 -6 18 -10 43 -17 54 -17 38 1 136 -35 136 -48 0 -8 9 -16
20 -19 10 -3 22 -13 25 -22 3 -9 18 -32 34 -50 l29 -35 123 -7 c118 -7 219
-30 219 -49 0 -13 53 -66 72 -73 10 -3 25 -21 33 -39 32 -66 55 -102 70 -110
8 -5 15 -15 15 -23 0 -7 8 -16 19 -20 18 -5 71 -75 71 -92 0 -20 53 -83 69
-83 22 0 51 -40 51 -70 0 -11 7 -20 15 -20 8 0 21 -13 30 -30 13 -25 15 -98
15 -504 0 -306 -4 -477 -10 -481 -5 -3 -10 -17 -10 -31 0 -17 -8 -27 -25 -34
-15 -6 -27 -21 -33 -41 -6 -27 -15 -34 -47 -43 -36 -11 -40 -15 -47 -55 -4
-24 -14 -51 -22 -60 -8 -9 -16 -25 -18 -36 -2 -13 -13 -21 -31 -23 -28 -3 -86
-56 -87 -78 0 -24 -102 -43 -207 -39 -109 5 -133 -3 -133 -46 0 -10 -4 -19
-10 -19 -5 0 -16 -13 -25 -30 -9 -17 -24 -30 -34 -30 -10 0 -29 -11 -42 -24
-35 -34 -76 -38 -359 -38 -209 0 -262 3 -293 15 -20 9 -37 21 -37 27 0 6 -12
15 -27 21 -16 5 -36 22 -45 37 -10 15 -22 34 -27 42 -5 8 -12 22 -14 31 -5 14
-27 15 -183 11 -224 -5 -321 8 -384 51 -25 17 -47 35 -49 40 -2 5 -14 19 -27
30 -15 13 -24 32 -24 49 0 16 -5 38 -11 49 -9 17 -17 19 -55 13 -57 -8 -180
21 -214 52 -14 12 -34 24 -45 26 -13 2 -21 12 -23 30 -2 14 -14 33 -26 42 -18
11 -26 30 -35 78 -11 64 -15 69 -70 100 -18 10 -31 25 -31 36 0 40 -85 92
-150 92 -22 0 -40 5 -40 11 0 5 -13 15 -29 20 -31 11 -81 68 -81 92 0 8 -7 20
-15 27 -8 7 -15 17 -15 23 0 18 -50 77 -66 77 -9 0 -14 -11 -14 -35 0 -26 -8
-43 -34 -69 -19 -18 -40 -36 -46 -38 -7 -2 -16 -21 -20 -43 -5 -22 -15 -62
-21 -90 -7 -27 -13 -69 -13 -93 0 -38 -7 -50 -51 -97 -27 -29 -60 -56 -72 -59
-32 -10 -45 -31 -49 -83 -10 -140 -17 -173 -40 -198 -12 -13 -25 -34 -29 -45
-4 -12 -15 -20 -28 -20 -26 0 -77 -59 -77 -88 0 -11 -18 -37 -40 -58 -33 -33
-41 -48 -49 -102 -5 -34 -19 -75 -30 -91 -14 -19 -21 -45 -21 -72 0 -33 -6
-50 -25 -69 -14 -14 -45 -45 -69 -70 -44 -44 -45 -46 -52 -130 -7 -89 -22
-133 -52 -149 -18 -10 -52 -100 -52 -140 0 -13 -9 -26 -25 -33 -14 -6 -25 -17
-25 -25 0 -7 -7 -13 -15 -13 -8 0 -15 -7 -15 -15 0 -8 -9 -19 -20 -25 -11 -6
-20 -19 -20 -30 0 -10 -4 -22 -10 -25 -6 -4 -10 -65 -10 -152 0 -155 9 -189
53 -209 12 -5 24 -18 26 -28 2 -11 21 -37 42 -58 22 -22 36 -44 33 -52 -8 -21
25 -66 48 -66 12 0 23 -11 29 -30 6 -16 15 -30 20 -30 6 0 16 -15 24 -32 11
-28 20 -34 66 -43 34 -7 56 -17 63 -30 17 -30 47 -55 68 -55 10 0 18 -6 18
-14 0 -8 7 -16 15 -20 8 -3 15 -16 15 -29 0 -25 44 -57 79 -57 12 0 31 -16 50
-44 17 -24 37 -46 45 -49 8 -3 20 -25 27 -49 7 -24 16 -47 21 -52 4 -6 8 -19
8 -31 0 -37 20 -45 110 -46 139 -1 179 -11 213 -53 16 -20 33 -36 39 -36 16 0
47 -43 48 -65 0 -11 4 -25 8 -31 8 -13 77 -26 142 -28 50 -1 75 -21 110 -87
21 -39 36 -49 80 -49 15 0 44 -7 63 -15 26 -10 72 -15 156 -15 69 0 122 -4
126 -10 3 -5 17 -10 31 -10 30 0 120 -63 127 -89 2 -10 17 -27 31 -36 23 -15
33 -16 65 -6 57 17 317 14 377 -4 27 -8 57 -12 67 -9 19 6 107 -32 107 -46 0
-24 79 -30 401 -30 311 0 339 1 351 18 7 9 39 30 71 45 53 26 70 29 210 34
110 4 159 3 175 -6 18 -9 31 -9 60 1 50 17 61 26 77 64 11 28 22 36 69 49 31
9 58 21 61 26 4 5 62 9 129 9 90 0 131 4 152 15 16 8 43 15 61 15 25 0 45 13
97 62 64 61 117 86 184 88 12 0 22 3 22 8 0 7 83 108 127 155 24 24 32 27 69
21 l41 -6 42 63 c22 35 41 70 41 78 0 8 18 30 41 49 28 24 39 41 36 53 -4 14
2 20 21 25 47 9 57 20 60 62 3 37 7 43 47 62 26 12 53 36 66 56 23 38 53 54
100 54 21 0 32 6 38 23 4 12 14 38 21 57 7 19 13 47 13 63 0 15 4 27 8 27 5 0
9 7 9 15 0 8 6 15 14 15 8 0 16 10 18 22 2 12 23 35 48 53 l45 32 10 89 10 89
65 62 c41 40 70 78 80 105 9 25 25 47 37 53 13 5 23 20 25 35 2 19 10 26 31
28 15 2 32 12 37 23 6 10 10 74 9 144 -1 110 1 128 20 158 12 19 21 41 21 48
0 8 16 23 35 33 19 10 37 27 40 37 4 11 15 24 26 29 17 9 19 22 19 106 0 75 3
96 15 100 8 4 15 17 15 29 0 39 18 75 44 86 30 14 46 48 46 102 1 23 7 53 15
67 12 21 14 180 15 1047 0 1000 0 1022 -20 1068 -11 26 -20 60 -20 75 0 18
-11 41 -30 62 -16 18 -30 42 -30 54 0 11 -7 36 -16 54 -10 18 -21 74 -27 124
-9 83 -14 95 -46 134 -21 25 -44 42 -56 42 -17 0 -25 11 -37 53 -25 81 -28
105 -31 219 -2 119 -16 148 -69 148 -20 0 -28 5 -28 17 0 9 -12 29 -26 44 -20
21 -28 42 -33 90 -6 45 -13 66 -26 73 -10 6 -36 29 -57 50 -30 32 -38 47 -38
77 0 36 -2 39 -41 49 -32 9 -43 18 -55 45 -8 19 -22 39 -32 44 -9 5 -24 26
-31 48 -8 21 -38 64 -67 96 -29 33 -59 73 -68 91 -22 46 -73 108 -107 130 -20
13 -33 31 -40 62 -14 54 -80 139 -114 148 -14 4 -25 12 -25 20 0 16 -29 42
-72 65 -18 10 -37 27 -42 37 -5 11 -29 28 -54 39 -35 14 -48 27 -63 59 -25 58
-70 96 -112 96 -19 0 -48 7 -66 16 -17 9 -68 21 -112 29 -55 8 -87 19 -102 33
-13 12 -37 27 -54 33 -23 7 -35 20 -43 44 -9 28 -18 34 -58 44 -26 7 -60 16
-77 21 -16 4 -46 11 -65 15 -52 9 -90 26 -90 39 0 6 -15 16 -32 22 -130 46
-158 58 -163 74 -5 16 -23 18 -164 21 -153 4 -159 5 -200 32 -23 15 -45 35
-48 44 -4 9 -15 25 -25 35 -10 10 -21 35 -24 56 -11 68 -1 65 -236 63 -247 -2
-324 7 -353 42 -11 13 -28 27 -38 30 -9 4 -20 15 -24 24 -3 10 -17 31 -30 46
-14 18 -23 42 -23 63 l0 34 -66 0 c-60 0 -69 3 -102 33 -95 86 -112 106 -112
136 0 21 -10 39 -32 60 -18 17 -38 31 -44 31 -13 0 -68 57 -83 87 -6 12 -11
37 -11 56 0 18 -7 54 -16 79 -13 40 -15 103 -12 440 3 388 3 394 26 429 12 20
22 43 22 52 0 16 79 87 98 87 13 0 52 62 52 82 0 47 83 142 134 153 71 15 188
18 790 21 486 3 672 1 682 -7 8 -6 25 -8 38 -5 14 3 28 2 31 -4 3 -5 15 -10
26 -10 17 0 79 -54 79 -69 0 -3 17 -25 38 -47 37 -41 40 -42 117 -48 134 -11
163 -22 230 -90 81 -80 105 -115 105 -149 0 -26 3 -28 33 -26 29 3 43 -6 100
-56 37 -33 67 -65 67 -72 0 -16 59 -59 90 -66 14 -3 40 -11 58 -18 32 -13 35
-12 53 10 10 13 19 34 19 48 0 14 20 54 45 90 40 57 45 70 45 119 0 47 5 61
32 95 18 22 43 45 57 52 14 7 27 21 29 32 2 11 7 29 12 40 5 11 11 32 14 48 4
15 13 27 21 27 8 0 15 4 15 10 0 15 69 108 83 113 8 2 12 38 13 118 1 133 13
186 49 212 14 11 32 34 40 53 8 20 25 38 40 44 24 9 25 13 25 94 0 103 13 136
80 200 42 41 53 58 59 95 4 25 11 53 17 62 20 35 63 79 77 79 8 0 25 9 38 19
23 19 24 25 29 203 6 199 8 208 66 247 19 13 34 29 34 36 0 7 -18 25 -40 40
-22 15 -40 34 -40 43 0 39 -24 90 -50 106 -16 9 -49 36 -74 59 -42 38 -46 47
-46 88 0 48 -13 69 -43 69 -28 0 -77 32 -77 51 0 9 -14 31 -31 50 -17 19 -40
44 -51 56 -13 15 -37 25 -69 29 -45 6 -54 12 -100 68 -96 118 -94 116 -147
116 -34 0 -58 7 -84 25 -20 14 -41 25 -47 25 -20 0 -71 65 -71 92 0 15 -6 30
-12 35 -7 4 -62 8 -123 8 -60 1 -125 5 -142 9 -42 10 -153 118 -153 149 0 30
-9 41 -47 61 -26 13 -64 16 -201 16 -132 0 -172 3 -188 15 -10 8 -27 15 -36
15 -30 0 -113 80 -118 114 -5 33 -16 37 -123 51 -34 4 -55 14 -69 31 l-22 24
-595 0 c-328 0 -601 -4 -607 -8z"/>
<path d="M77998 21193 c-10 -2 -18 -8 -18 -11 0 -4 -17 -7 -37 -7 -37 0 -38
-1 -41 -39 -2 -27 -11 -45 -27 -58 -13 -10 -27 -27 -30 -38 -4 -11 -12 -20
-20 -20 -7 0 -20 -6 -27 -14 -41 -41 -81 -50 -223 -54 -98 -3 -145 -8 -159
-18 -11 -8 -30 -14 -43 -14 -15 0 -27 -10 -38 -34 -9 -18 -26 -39 -39 -46 -13
-7 -29 -23 -35 -36 -6 -13 -18 -24 -26 -24 -9 0 -26 -11 -38 -24 -25 -27 -66
-36 -194 -43 -91 -4 -92 -4 -111 -37 -11 -19 -34 -42 -51 -52 -17 -10 -31 -22
-31 -26 0 -4 -7 -8 -15 -8 -8 0 -19 -8 -24 -19 -10 -19 -23 -23 -139 -42 -55
-10 -63 -14 -69 -38 -9 -41 -40 -78 -99 -122 -30 -22 -63 -57 -74 -79 -11 -22
-29 -44 -41 -50 -11 -6 -24 -21 -28 -33 -11 -30 -95 -67 -150 -67 -39 0 -58
-17 -65 -60 -3 -22 -10 -40 -15 -40 -5 0 -24 -15 -42 -33 -19 -19 -41 -38 -49
-43 -19 -11 -60 -87 -60 -111 0 -10 -13 -44 -29 -76 -24 -49 -36 -62 -77 -82
-28 -14 -68 -25 -91 -25 -34 0 -43 -4 -43 -17 0 -26 -30 -67 -75 -103 -50 -39
-62 -62 -71 -124 -5 -34 -14 -55 -32 -70 -13 -11 -28 -31 -33 -44 -5 -13 -25
-30 -44 -38 -25 -10 -35 -21 -35 -37 0 -41 -21 -96 -38 -101 -10 -3 -42 -28
-71 -56 -45 -42 -52 -54 -47 -75 6 -22 2 -27 -24 -36 -18 -7 -30 -18 -30 -28
0 -10 -8 -26 -19 -35 -10 -9 -21 -35 -25 -56 -4 -26 -12 -40 -21 -40 -8 0 -15
-4 -15 -10 0 -5 -14 -32 -31 -60 -23 -37 -29 -57 -24 -78 4 -22 0 -35 -20 -56
-14 -15 -26 -37 -26 -49 -5 -78 -9 -92 -28 -106 -11 -9 -23 -27 -26 -41 -13
-52 -70 -135 -96 -139 -13 -1 -27 -8 -32 -15 -4 -6 -7 -59 -6 -117 1 -103 0
-109 -28 -150 -17 -24 -33 -55 -36 -69 -4 -18 -16 -29 -39 -35 l-33 -10 -2
-95 c-1 -52 -8 -133 -14 -179 -11 -75 -15 -85 -41 -101 -16 -9 -44 -35 -63
-58 -34 -39 -35 -43 -35 -121 0 -70 -4 -90 -32 -148 -28 -60 -77 -119 -131
-158 -16 -11 -19 -34 -24 -184 -4 -123 -3 -174 6 -184 8 -11 9 -22 1 -41 -5
-15 -10 -42 -10 -61 0 -19 -4 -37 -10 -40 -5 -3 -10 -16 -10 -27 0 -12 -20
-43 -45 -69 -36 -39 -45 -55 -45 -85 0 -20 -7 -50 -15 -67 -12 -27 -15 -136
-20 -632 -5 -644 -7 -691 -19 -718 -10 -20 -2 -168 13 -242 6 -29 10 -311 10
-681 1 -347 4 -652 7 -677 6 -40 10 -46 32 -49 30 -3 56 -51 89 -158 16 -54
19 -90 18 -208 -2 -125 -1 -144 14 -148 9 -3 23 -9 31 -13 21 -11 59 -82 60
-112 0 -14 11 -36 26 -50 47 -43 54 -74 54 -256 0 -190 2 -195 72 -232 58 -29
67 -57 75 -213 6 -129 16 -158 55 -158 11 0 23 -11 28 -26 6 -14 19 -28 29
-31 16 -4 20 -18 25 -101 13 -187 16 -201 45 -215 14 -6 30 -22 36 -35 5 -12
15 -22 22 -22 7 0 13 -6 13 -14 0 -8 14 -26 31 -39 27 -21 34 -37 49 -106 13
-56 27 -92 47 -117 46 -58 63 -96 63 -144 0 -68 26 -130 76 -181 39 -39 46
-54 53 -101 6 -46 13 -60 47 -91 21 -20 44 -37 49 -37 15 0 55 -93 55 -126 0
-38 35 -94 58 -94 36 0 82 -70 82 -125 0 -13 21 -49 50 -83 41 -49 50 -67 50
-98 0 -22 4 -44 8 -49 13 -19 88 -65 104 -65 10 0 28 -22 44 -50 18 -33 36
-53 51 -57 14 -3 29 -16 33 -29 6 -16 17 -24 33 -24 13 0 32 -9 42 -20 10 -11
26 -22 36 -25 10 -3 29 -26 44 -50 14 -25 31 -45 38 -45 7 0 18 -14 26 -31 7
-16 26 -44 42 -62 16 -17 29 -35 29 -38 0 -4 15 -22 33 -41 30 -31 86 -54 178
-72 30 -6 68 -40 88 -77 7 -15 23 -31 36 -37 12 -6 29 -24 36 -41 8 -17 20
-31 27 -31 10 0 12 -8 7 -30 -11 -48 9 -63 70 -55 59 7 134 -9 162 -34 10 -9
26 -20 36 -24 9 -3 17 -13 17 -21 0 -9 9 -20 19 -26 11 -6 22 -25 26 -49 l6
-38 64 -7 c35 -3 76 -13 92 -21 15 -8 35 -15 43 -15 8 0 30 -24 49 -54 41 -66
74 -77 250 -83 86 -3 131 -9 145 -19 11 -8 33 -14 48 -14 16 0 28 -4 28 -8 0
-4 14 -16 31 -26 17 -10 37 -33 45 -51 16 -39 41 -50 87 -39 17 4 37 6 42 4 6
-3 53 -5 105 -6 126 -3 158 -10 203 -50 l37 -34 401 0 400 0 37 30 c51 40 114
60 186 60 34 -1 98 2 144 5 55 5 98 3 127 -5 54 -15 83 -6 91 28 9 36 72 92
105 92 14 0 34 7 45 15 12 9 44 14 90 15 39 0 91 7 114 15 23 8 53 15 66 15
14 0 32 4 42 9 9 6 29 12 43 15 18 4 29 14 33 31 8 31 79 78 121 81 85 5 111
15 123 48 7 18 25 42 42 54 16 13 30 28 30 35 0 24 83 63 149 70 77 8 107 26
115 67 3 16 9 44 12 61 4 22 20 41 55 66 27 19 49 40 49 47 0 19 55 46 97 46
42 0 69 16 129 76 22 23 45 43 50 45 16 7 74 92 74 108 1 29 60 105 94 121 18
8 40 20 47 27 8 7 44 13 79 15 61 3 65 5 68 28 6 49 35 90 63 90 40 0 69 38
76 101 4 41 14 64 40 96 18 23 42 44 52 48 25 8 56 60 65 109 5 26 14 40 32
48 14 7 32 25 40 40 8 16 26 33 39 38 20 8 25 17 25 45 0 21 17 71 40 120 25
52 40 99 40 123 0 57 73 152 117 152 30 0 63 53 63 102 0 50 48 98 123 122 14
4 16 13 11 46 -6 35 -3 43 20 61 20 15 26 29 26 58 0 29 7 44 35 71 19 19 35
39 35 45 0 5 9 16 20 22 22 14 28 42 38 162 l7 85 65 55 c51 43 66 62 67 86 2
16 8 53 14 80 5 28 13 68 16 90 3 22 14 51 24 64 11 13 19 29 19 35 0 6 18 19
39 28 l40 17 5 83 c10 158 15 184 47 214 16 15 29 36 29 46 0 11 11 20 33 26
l32 8 5 265 c5 271 9 297 49 333 11 11 21 27 21 37 0 10 9 19 21 21 12 2 31
16 43 31 19 26 21 44 24 230 4 243 7 263 43 305 16 18 31 45 34 60 4 15 11 35
16 45 31 57 33 120 36 1171 l3 1060 -21 23 c-12 12 -30 25 -40 28 -9 3 -20 18
-24 33 -4 15 -12 34 -19 42 -24 28 -29 93 -26 336 2 250 0 267 -41 307 -10 9
-25 17 -34 17 -13 0 -15 7 -10 33 5 28 2 35 -23 54 -38 28 -45 70 -48 273 -2
85 -3 160 -3 167 -1 6 -21 21 -44 32 -48 23 -67 54 -67 106 0 24 -5 35 -15 35
-8 0 -16 8 -16 18 -4 53 -5 75 -7 154 -2 94 1 89 -77 148 -30 23 -43 40 -40
51 3 9 1 36 -5 60 -19 73 -31 133 -29 149 7 97 -2 146 -31 155 -11 4 -27 20
-35 36 -9 16 -21 29 -28 29 -22 0 -56 81 -50 118 3 18 -1 46 -10 65 -8 17 -18
47 -22 66 -6 27 -15 37 -46 50 -29 12 -39 22 -39 39 0 15 -8 26 -24 32 -33 12
-48 43 -41 84 5 26 0 45 -25 89 -17 30 -42 63 -56 72 -27 17 -54 70 -54 105 0
27 -39 80 -60 80 -23 0 -80 62 -80 86 0 22 -29 54 -47 54 -6 0 -14 14 -18 30
-4 17 -15 35 -26 40 -14 8 -19 22 -19 57 0 54 -27 104 -67 122 -15 7 -33 21
-41 32 -7 10 -19 19 -26 19 -9 0 -12 9 -8 25 7 37 -16 82 -48 95 -33 13 -81
80 -90 125 -5 27 -10 30 -43 30 -31 1 -45 9 -97 62 -57 59 -60 64 -60 111 0
57 -8 63 -68 55 -36 -5 -41 -3 -44 17 -2 17 -14 27 -42 37 -22 7 -47 20 -57
29 -20 18 -49 100 -49 138 0 15 -6 26 -13 26 -26 0 -137 62 -137 76 0 8 -11
24 -25 36 -14 12 -25 30 -25 41 0 23 -27 46 -55 47 -19 0 -84 34 -95 49 -3 4
-21 17 -41 29 -21 12 -40 33 -43 46 -7 27 -68 60 -97 53 -29 -8 -99 14 -110
34 -7 13 -21 19 -44 19 -19 0 -35 5 -35 11 0 23 -64 110 -84 114 -12 2 -77 6
-145 8 l-124 4 -26 32 c-14 17 -35 31 -46 31 -22 0 -59 60 -70 115 -12 53 -17
55 -167 55 -76 0 -160 5 -186 12 -56 14 -110 46 -118 71 -3 10 -18 31 -33 45
-15 15 -30 34 -34 44 -3 9 -20 19 -37 23 -18 4 -41 18 -53 31 l-21 24 -630 -1
c-347 -1 -639 -3 -648 -6z m1304 -3123 c34 -11 71 -20 81 -20 19 0 49 -27 67
-59 6 -12 17 -21 25 -21 8 0 15 -9 15 -20 0 -12 10 -24 24 -30 13 -5 27 -14
31 -19 3 -6 15 -11 25 -11 11 0 24 -9 30 -20 6 -11 21 -20 33 -20 14 0 31 -13
46 -35 13 -20 34 -38 47 -41 13 -3 30 -17 39 -30 8 -13 25 -24 38 -24 27 0 38
-8 60 -42 12 -19 33 -32 71 -43 29 -9 62 -25 71 -35 10 -11 23 -20 28 -20 15
0 36 -33 37 -58 0 -16 14 -31 50 -53 28 -17 57 -44 65 -59 8 -16 24 -31 35
-35 26 -8 36 -29 45 -93 6 -48 10 -54 41 -67 19 -8 34 -19 34 -25 0 -6 11 -15
25 -20 14 -5 25 -15 25 -23 0 -7 9 -30 20 -52 11 -22 20 -47 20 -57 0 -10 7
-18 16 -18 18 0 84 -67 84 -85 0 -7 9 -20 20 -30 11 -10 20 -29 20 -42 0 -33
17 -63 36 -63 25 0 110 -87 124 -127 7 -21 16 -87 19 -148 l6 -110 30 -14 c45
-21 85 -62 85 -88 0 -13 7 -38 16 -54 12 -24 15 -65 15 -189 l1 -159 26 -3
c17 -2 34 -14 47 -35 11 -18 26 -32 32 -33 21 0 40 -42 47 -100 10 -101 8
-1885 -3 -1926 -5 -22 -16 -60 -23 -86 -7 -27 -17 -48 -24 -48 -6 0 -16 -11
-22 -26 -7 -14 -25 -30 -41 -35 -38 -13 -44 -40 -35 -149 4 -60 3 -89 -5 -94
-6 -4 -11 -22 -11 -40 0 -27 -8 -40 -42 -68 -24 -19 -51 -38 -62 -41 -13 -5
-17 -14 -13 -30 3 -12 -1 -31 -9 -41 -10 -15 -14 -51 -14 -141 0 -101 -3 -127
-20 -160 -11 -22 -20 -47 -20 -57 0 -10 -6 -18 -14 -18 -8 0 -27 -11 -43 -24
-15 -13 -38 -26 -49 -30 -16 -5 -24 -17 -27 -44 -19 -124 -41 -162 -132 -225
-23 -17 -25 -23 -19 -62 5 -36 2 -50 -17 -77 -45 -64 -102 -128 -115 -128 -19
0 -154 -71 -154 -81 0 -5 -13 -15 -28 -23 -15 -8 -38 -35 -50 -60 -15 -30 -30
-46 -42 -46 -22 0 -60 -45 -60 -70 0 -9 -9 -28 -20 -41 -81 -99 -117 -138
-127 -138 -7 -1 -23 -12 -37 -26 -15 -15 -38 -26 -58 -27 -18 -1 -46 -2 -63
-3 -51 -3 -55 -4 -55 -21 0 -9 -9 -27 -20 -41 -11 -14 -20 -31 -20 -39 0 -7
-15 -22 -34 -34 -19 -11 -36 -26 -38 -31 -9 -27 -186 -34 -878 -34 -652 0
-708 1 -739 18 -19 9 -42 17 -52 17 -29 0 -97 51 -108 81 -5 16 -15 29 -20 29
-6 0 -11 15 -11 34 0 41 -19 59 -59 54 -19 -2 -35 3 -43 14 -7 8 -36 23 -65
32 -41 14 -53 23 -62 47 -6 17 -20 38 -33 48 -12 10 -27 34 -34 52 -10 30 -15
34 -45 34 -19 0 -45 6 -59 12 -14 6 -33 14 -42 17 -9 3 -29 22 -42 43 -14 21
-35 50 -47 64 -12 15 -24 47 -26 72 -4 37 -10 47 -27 49 -13 2 -29 19 -45 49
-13 26 -34 52 -47 58 -18 8 -24 19 -24 42 0 34 -24 69 -47 69 -8 0 -19 13 -24
30 -6 16 -18 32 -28 35 -9 3 -22 20 -29 38 -13 36 -66 92 -104 111 -34 16 -68
96 -75 174 -3 37 -12 77 -19 89 -8 12 -14 38 -14 57 0 26 -7 40 -30 59 -16 14
-46 52 -65 85 -27 47 -35 71 -35 111 0 27 -4 53 -10 56 -5 3 -10 37 -10 75 0
62 -2 71 -22 81 -13 6 -42 32 -65 57 -35 37 -43 53 -43 83 0 21 -4 41 -10 44
-6 4 -10 84 -10 208 0 186 -2 206 -21 247 -16 33 -32 51 -60 64 -60 30 -59 12
-65 631 -4 329 -2 486 6 525 15 70 52 142 82 157 58 30 58 32 58 327 0 149 5
289 10 310 11 48 36 84 78 111 17 11 31 27 32 36 0 8 7 24 15 35 9 12 14 43
15 82 0 39 10 94 26 145 14 45 29 93 33 107 3 13 15 29 26 35 11 6 34 24 52
40 28 26 32 37 31 75 -2 56 42 213 68 241 21 24 101 79 113 79 5 0 12 20 15
45 4 25 11 45 16 45 5 0 11 8 14 18 3 9 26 30 51 45 45 29 45 29 45 86 0 55 2
60 40 94 22 19 40 40 40 46 0 6 21 21 46 32 25 12 49 29 52 38 16 38 88 121
104 121 21 0 69 28 81 48 11 16 105 62 130 62 19 0 94 47 116 74 8 9 26 16 42
16 19 0 32 7 40 23 20 37 48 58 87 64 20 3 46 13 57 23 11 9 28 20 38 23 10 4
17 17 17 31 0 17 7 27 23 32 12 3 30 15 41 26 13 14 26 18 43 13 16 -4 31 0
42 9 23 21 55 22 668 24 525 2 554 1 615 -18z"/>
<path d="M36906 20952 c-3 -6 -6 -2782 -6 -6169 l0 -6158 1007 -3 c555 -1
1031 -3 1058 -5 l50 -2 2 1893 c2 1041 4 1896 7 1900 2 4 6 34 7 67 4 62 16
85 44 85 11 0 15 5 11 16 -4 10 -2 13 6 8 8 -5 9 0 5 15 -4 18 0 25 24 35 16
7 26 16 22 21 -5 4 -2 5 5 1 8 -5 21 -1 32 9 10 9 40 18 67 21 101 9 139 13
170 17 18 3 31 1 28 -3 -7 -11 22 -21 39 -14 9 3 17 -3 21 -15 3 -12 10 -19
15 -16 5 3 12 0 15 -5 4 -6 18 -15 32 -21 13 -5 22 -13 19 -18 -8 -12 4 -42
14 -36 10 6 70 -54 70 -71 0 -31 95 -158 111 -148 4 2 11 -6 15 -18 3 -13 15
-31 25 -41 13 -12 17 -25 12 -47 -3 -18 -1 -30 5 -30 5 0 8 -15 5 -35 -3 -26
0 -37 11 -41 9 -3 16 -12 16 -20 0 -8 7 -14 15 -14 8 0 15 -6 15 -12 0 -17 45
-69 53 -62 3 3 3 -3 0 -14 -2 -11 0 -23 6 -26 7 -5 7 -13 -1 -26 -10 -16 -9
-23 9 -39 15 -14 24 -38 28 -76 6 -47 12 -58 35 -70 15 -8 31 -11 35 -7 5 4 5
2 1 -5 -3 -6 2 -20 13 -30 10 -10 22 -29 26 -43 4 -14 18 -39 31 -56 12 -17
26 -43 30 -58 4 -17 11 -25 20 -22 8 3 13 0 11 -7 -1 -7 5 -11 13 -9 8 2 12 0
7 -4 -4 -4 5 -21 20 -37 16 -17 22 -26 14 -22 -10 6 -12 4 -6 -6 5 -7 8 -31 6
-52 -1 -22 1 -37 6 -34 5 3 9 -4 9 -16 -1 -12 4 -21 10 -20 6 1 9 -8 7 -21 -3
-13 2 -30 11 -39 19 -19 21 -56 4 -93 -10 -22 -10 -28 0 -32 7 -2 10 -7 7 -11
-2 -5 7 -19 20 -31 14 -13 25 -29 25 -36 0 -7 15 -28 33 -47 20 -22 33 -48 35
-69 2 -18 8 -35 13 -36 5 -2 7 -7 4 -12 -9 -15 68 -71 93 -67 12 2 22 0 22 -5
0 -5 4 -7 9 -3 6 3 8 -6 5 -20 -3 -16 5 -39 23 -67 23 -34 29 -56 33 -120 3
-43 2 -78 -2 -78 -5 0 -8 -10 -8 -23 0 -31 35 -67 66 -67 14 0 23 -4 20 -9 -4
-5 5 -32 19 -59 14 -27 25 -62 25 -77 0 -15 4 -24 10 -20 5 3 7 0 4 -8 -3 -9
8 -23 31 -37 19 -12 40 -31 46 -41 5 -11 14 -17 20 -14 5 4 8 3 7 -2 -1 -4 6
-21 17 -37 24 -36 35 -111 34 -236 0 -96 10 -129 41 -133 25 -4 40 -17 40 -36
0 -10 17 -29 38 -42 34 -22 37 -27 35 -68 -2 -34 3 -50 22 -73 14 -16 25 -34
25 -40 0 -6 7 -7 16 -4 8 3 12 2 9 -4 -3 -6 -2 -10 3 -10 5 0 7 -20 5 -45 -3
-28 -1 -45 6 -45 6 0 8 -6 5 -14 -3 -7 2 -20 10 -29 8 -8 13 -17 10 -20 -4 -3
-2 -12 2 -19 11 -18 15 -35 21 -90 4 -41 11 -53 49 -87 25 -22 44 -47 44 -59
0 -11 7 -28 16 -36 8 -9 13 -16 9 -16 -3 0 1 -10 9 -22 9 -12 16 -33 16 -46 0
-13 4 -21 8 -18 5 3 6 -9 4 -25 -4 -25 2 -38 31 -67 22 -23 39 -53 45 -79 6
-25 6 -40 1 -37 -5 3 -9 -3 -9 -14 0 -20 24 -46 50 -54 10 -3 14 -16 12 -44
-3 -35 0 -42 23 -52 21 -10 25 -10 19 0 -5 10 -4 10 6 1 8 -8 21 -8 39 -2 16
6 484 8 1179 7 l1152 -3 0 21 c0 11 -6 26 -12 33 -11 11 -10 12 0 7 20 -12 13
82 -9 122 -11 18 -19 38 -19 44 0 7 -16 26 -35 44 -34 31 -35 34 -36 110 -1
44 -1 86 0 95 1 9 -14 29 -34 45 -20 16 -49 41 -65 55 -16 15 -31 24 -34 22
-2 -3 -2 4 1 16 3 12 1 21 -3 21 -5 0 -10 42 -12 93 -2 50 -5 99 -8 109 -5 16
-64 44 -64 30 0 -15 -29 37 -34 59 -6 35 -23 76 -34 83 -5 3 -13 44 -17 91 -6
79 -9 86 -36 106 -17 12 -41 22 -54 23 -13 0 -23 3 -22 6 3 22 -19 127 -29
138 -8 7 -14 19 -14 25 0 17 -99 119 -110 112 -4 -3 -6 3 -3 14 3 11 -4 27
-17 39 -18 16 -19 20 -6 25 10 4 16 19 16 38 0 25 -4 30 -17 27 -15 -4 -18 2
-17 41 1 42 -16 86 -40 103 -5 3 -11 22 -12 42 -1 24 -11 44 -33 66 -28 28
-39 64 -32 104 3 17 -31 57 -45 52 -8 -3 -13 0 -11 7 1 7 -4 11 -11 9 -8 -1
-16 6 -19 16 -4 18 -38 41 -55 38 -26 -4 -48 73 -54 189 -9 187 -11 195 -62
239 -25 23 -51 41 -57 40 -5 0 -11 15 -12 35 -4 47 -22 81 -45 81 -10 0 -18 6
-18 14 0 9 -12 16 -27 18 -16 2 -32 12 -38 24 -6 12 -17 30 -25 40 -12 14 -12
16 -1 9 11 -6 12 -5 5 6 -15 24 -17 42 -18 124 -2 89 -15 121 -56 130 -14 3
-30 16 -35 28 -6 12 -18 21 -27 21 -10 -1 -16 1 -14 5 2 3 -1 17 -6 31 -5 14
-12 56 -14 94 -2 39 -8 74 -14 80 -5 5 -10 7 -10 3 0 -10 -70 60 -71 70 -3 33
-11 51 -31 67 -13 10 -22 25 -20 32 2 8 -1 14 -5 14 -4 0 -7 39 -6 87 1 61 -2
91 -11 98 -7 6 -15 18 -19 28 -4 11 -12 15 -18 11 -8 -5 -9 -3 -5 5 5 8 0 14
-13 18 -12 3 -24 17 -27 32 -4 14 -16 36 -27 49 -15 16 -21 36 -21 76 -1 35
-7 61 -17 72 -25 29 -46 77 -42 96 3 12 -4 21 -19 27 -32 13 -53 41 -52 71 0
33 -15 80 -27 80 -5 0 -3 13 6 30 8 16 15 44 15 62 0 40 23 76 56 88 27 10 33
47 12 69 -7 7 -8 11 -3 9 6 -2 11 1 12 5 1 5 15 18 30 30 15 12 31 27 36 34
17 28 40 43 65 43 15 0 38 7 52 15 14 8 33 18 43 21 15 6 19 12 16 30 0 4 4
10 10 13 6 4 12 19 13 33 1 16 7 24 15 21 7 -3 17 5 22 18 5 13 10 21 10 17 1
-4 16 0 34 10 17 10 44 17 60 16 18 -2 27 2 27 12 0 8 10 18 23 23 30 12 49
35 51 65 0 13 4 22 7 20 4 -2 18 11 32 29 21 28 31 33 55 29 49 -7 75 27 70
94 -3 50 3 64 27 63 13 0 36 32 30 41 -3 6 1 7 9 4 13 -5 22 8 14 19 -6 7 55
56 63 51 5 -3 9 10 9 28 0 28 10 43 65 93 35 33 70 58 76 56 8 -2 10 4 6 18
-3 11 -1 19 3 16 12 -7 22 52 24 131 0 35 5 64 10 64 4 0 5 7 2 16 -3 8 -2 13
3 9 11 -6 51 42 51 61 0 13 12 18 33 15 4 0 7 3 7 9 0 6 6 9 13 8 6 -2 11 3 9
10 -1 6 3 11 10 10 13 -3 31 115 26 168 -3 23 0 31 12 30 8 -1 14 6 14 16 -1
10 2 16 6 13 5 -3 11 -1 15 4 3 6 12 8 20 5 24 -10 46 41 51 118 3 40 8 80 11
88 3 8 11 44 17 80 8 48 16 67 31 75 12 5 27 16 35 23 8 7 23 18 32 25 14 10
17 40 20 232 2 165 6 223 16 230 7 6 14 27 15 48 1 20 5 37 9 37 3 0 17 17 29
38 13 20 27 40 32 43 5 4 8 25 5 47 -2 22 0 40 5 39 5 -1 16 9 25 23 16 23 17
100 12 962 -3 515 -2 934 3 931 12 -7 8 16 -8 48 -9 16 -20 27 -24 24 -5 -2
-7 17 -6 45 2 42 -1 52 -26 76 -16 15 -29 36 -29 46 0 23 -27 78 -39 78 -11 0
-21 110 -23 253 -2 111 -10 136 -43 123 -9 -3 -13 -2 -10 4 3 5 -4 14 -15 20
-11 6 -18 15 -15 21 4 5 0 9 -9 9 -10 0 -17 18 -23 63 -5 34 -13 61 -18 60 -6
-1 -9 46 -8 118 1 65 -1 119 -5 119 -4 0 -8 10 -9 21 -2 25 -32 61 -45 53 -4
-3 -7 -2 -6 3 4 10 -73 103 -81 98 -3 -1 -6 10 -6 26 0 17 5 29 13 29 21 0 13
37 -11 57 -16 12 -23 26 -20 42 2 13 -3 33 -10 45 -7 12 -13 33 -12 49 1 15
-4 32 -11 38 -7 6 -11 16 -8 24 3 7 -8 22 -24 34 -22 15 -33 35 -42 71 -8 33
-18 51 -31 55 -11 4 -32 18 -47 31 -15 14 -35 32 -44 41 -9 8 -22 12 -30 7 -7
-4 -10 -4 -6 1 5 5 -1 14 -12 22 -16 11 -20 26 -20 74 0 46 -3 59 -15 59 -8 0
-15 5 -15 11 0 6 -12 27 -27 47 -15 20 -28 38 -29 40 -1 2 -11 4 -22 5 -11 0
-20 4 -20 7 1 3 -1 12 -4 20 -3 8 -10 33 -14 55 -7 30 -17 44 -39 55 -16 9
-45 30 -62 48 -18 19 -37 31 -41 28 -5 -3 -8 11 -6 31 3 44 -12 77 -32 69 -8
-3 -13 -2 -10 3 6 9 -68 31 -106 31 -13 0 -43 12 -66 27 -33 21 -42 34 -42 55
0 16 -4 28 -10 28 -5 0 -9 3 -8 8 4 16 -14 52 -27 52 -8 0 -11 7 -8 20 4 14 0
20 -11 20 -9 0 -29 12 -45 28 -15 15 -42 39 -59 53 -17 15 -29 29 -27 31 10
10 -35 40 -67 44 -18 3 -48 9 -67 14 -19 5 -39 6 -44 3 -6 -3 -7 -1 -3 5 4 7
-6 20 -27 32 -19 11 -39 31 -45 45 -6 14 -16 25 -21 25 -5 0 -11 10 -13 23 -2
15 -10 22 -25 21 -12 0 -20 3 -17 7 2 4 -60 10 -138 13 -178 6 -248 14 -248
30 0 7 -13 22 -30 34 -16 13 -30 30 -30 40 -1 20 -46 56 -60 47 -5 -3 -7 0 -4
8 3 9 -6 23 -23 36 -15 11 -36 28 -45 37 -13 12 -27 15 -55 11 -50 -9 -4145
-9 -4205 -1 -27 4 -48 2 -52 -4z m3942 -2867 c34 -4 62 -11 62 -15 0 -5 8 -11
18 -14 33 -11 142 -121 142 -144 0 -17 6 -22 25 -22 17 0 29 -9 40 -30 13 -24
22 -30 49 -30 19 0 39 -7 47 -17 8 -9 28 -22 45 -29 22 -9 39 -28 54 -59 13
-26 33 -51 46 -57 13 -6 24 -15 24 -21 0 -5 9 -21 21 -35 15 -19 19 -35 15
-58 -7 -36 18 -75 65 -99 16 -9 29 -19 29 -24 0 -5 16 -25 35 -44 27 -27 35
-43 35 -71 0 -20 7 -53 15 -73 13 -30 14 -46 5 -87 -9 -41 -10 -606 -1 -916 2
-77 -10 -154 -35 -225 -36 -97 -40 -105 -63 -105 -43 0 -121 -106 -121 -165 0
-12 -8 -30 -19 -39 -10 -9 -24 -37 -31 -61 -7 -25 -19 -50 -26 -56 -8 -6 -14
-22 -14 -34 0 -18 -10 -25 -53 -39 -42 -13 -61 -26 -86 -60 -18 -24 -43 -48
-56 -54 -13 -6 -25 -20 -27 -32 -4 -27 -117 -70 -202 -77 -47 -4 -68 -11 -97
-35 -34 -27 -45 -30 -136 -35 -153 -8 -1289 -8 -1371 0 -90 9 -165 44 -181 84
-23 53 -35 72 -52 76 -12 3 -19 20 -24 58 -10 74 -22 2330 -13 2351 5 9 13 51
19 93 10 64 15 78 33 85 12 4 39 29 60 54 32 39 43 46 74 46 20 0 57 7 82 15
38 12 162 13 775 10 402 -2 758 -6 793 -10z"/>
<path d="M51492 20953 l-942 -3 -13 -28 c-6 -15 -17 -30 -23 -35 -7 -4 -24
-28 -38 -53 l-26 -47 0 -443 0 -443 30 -48 30 -47 0 -458 c0 -418 2 -462 18
-491 16 -30 17 -191 20 -2907 2 -2080 -1 -2882 -9 -2902 -6 -15 -17 -29 -25
-32 -8 -3 -14 -12 -14 -20 0 -8 -12 -29 -26 -46 -65 -77 -66 -80 -64 -367 l1
-262 -41 -23 c-35 -20 -48 -38 -90 -124 -28 -56 -57 -104 -64 -107 -8 -3 -19
-21 -25 -39 -7 -22 -23 -40 -47 -53 -23 -12 -41 -33 -53 -59 -10 -23 -26 -60
-36 -83 -10 -24 -24 -43 -31 -43 -7 0 -21 -9 -31 -20 -10 -10 -36 -25 -58 -32
-36 -12 -40 -16 -40 -48 0 -24 -9 -44 -28 -64 -15 -16 -30 -40 -33 -52 -13
-51 -122 -104 -170 -82 -21 10 -32 8 -60 -7 -28 -15 -48 -17 -118 -12 -94 7
-97 5 -118 -59 -7 -22 -22 -43 -35 -49 -12 -5 -24 -21 -27 -37 -4 -19 -13 -29
-31 -34 -14 -3 -25 -9 -25 -14 0 -4 -26 -14 -57 -23 -81 -23 -391 -19 -478 6
-33 9 -62 22 -64 29 -2 6 -21 28 -41 48 -21 20 -41 46 -44 57 -4 11 -23 28
-44 37 -20 9 -48 23 -62 31 -17 10 -38 13 -68 9 -30 -5 -49 -2 -67 10 -13 9
-32 16 -41 16 -34 0 -114 53 -121 79 -8 35 -22 51 -44 51 -10 0 -25 12 -34 28
-28 52 -53 72 -99 81 -37 7 -55 19 -106 72 -51 54 -60 68 -55 91 5 23 2 29
-24 43 -17 8 -50 34 -74 58 -51 49 -53 57 -69 260 l-11 138 -30 6 c-16 3 -31
13 -35 22 -3 9 -18 27 -35 41 -19 17 -32 40 -37 70 -5 25 -9 495 -10 1044 l0
999 -36 66 c-34 62 -36 71 -38 164 -1 83 2 101 17 111 16 13 17 167 17 2995 0
2643 -2 2981 -15 2981 -8 0 -15 4 -15 10 0 5 -13 16 -30 25 -25 13 -147 15
-975 15 -579 0 -952 -4 -963 -10 -9 -5 -34 -17 -54 -26 -25 -10 -38 -23 -38
-35 0 -11 5 -19 10 -19 7 0 10 -1376 10 -4167 l-1 -4168 31 -37 c22 -26 30
-47 30 -75 0 -21 6 -56 12 -78 6 -22 15 -130 18 -240 9 -250 21 -312 71 -365
41 -43 59 -87 59 -144 0 -30 5 -67 11 -83 14 -37 14 -206 0 -211 -24 -8 -11
-40 19 -47 22 -5 34 -16 44 -39 7 -17 25 -39 39 -49 26 -17 29 -28 43 -175 6
-59 9 -65 43 -86 49 -31 56 -42 72 -106 7 -30 19 -59 26 -65 8 -6 15 -52 19
-122 6 -91 10 -114 23 -118 25 -8 59 -65 72 -120 20 -85 26 -95 58 -95 16 0
34 -7 41 -15 7 -8 19 -15 26 -15 8 0 14 -4 14 -8 0 -5 13 -21 28 -38 16 -16
33 -43 39 -59 16 -48 57 -102 104 -138 36 -27 45 -39 47 -71 2 -28 12 -46 37
-69 46 -44 67 -61 81 -67 6 -3 29 -27 50 -55 28 -37 37 -58 36 -82 -2 -26 4
-37 33 -60 19 -15 35 -33 35 -39 0 -7 18 -34 40 -60 22 -27 40 -59 40 -71 0
-12 11 -30 25 -40 14 -10 42 -33 62 -51 42 -39 71 -52 116 -52 18 0 44 -8 57
-17 28 -20 80 -74 80 -84 0 -4 11 -10 25 -13 32 -8 79 -78 71 -104 -4 -11 -2
-31 3 -46 9 -23 15 -26 59 -25 26 1 57 -3 68 -9 10 -5 36 -17 57 -26 26 -11
41 -26 49 -46 5 -17 14 -30 19 -30 5 0 20 -17 33 -39 22 -34 30 -39 75 -44
106 -13 202 -83 213 -158 l3 -24 157 4 c131 2 161 0 180 -13 12 -9 34 -16 48
-16 29 0 110 -71 110 -95 0 -8 6 -15 13 -15 6 0 322 0 701 -1 l690 -1 8 22
c12 32 50 70 70 70 9 0 20 5 23 10 3 6 19 10 34 10 16 0 34 7 42 16 11 13 38
15 168 14 86 -1 161 -1 166 -1 6 1 17 17 23 35 16 42 98 126 124 126 11 0 29
5 41 12 13 7 67 10 144 9 l123 -2 0 25 c0 21 39 77 80 116 28 26 50 68 50 96
0 19 4 34 9 34 5 0 11 9 14 20 3 11 12 20 21 20 9 0 16 6 16 14 0 8 17 29 39
48 21 18 41 43 45 55 11 35 35 48 99 53 58 5 60 6 71 40 6 21 24 43 43 55 18
11 32 26 33 34 0 7 14 29 30 48 17 18 30 42 30 53 0 11 12 25 27 32 19 9 30
23 33 43 4 23 11 31 30 33 25 3 60 48 60 78 0 7 13 26 29 40 17 15 31 38 33
53 2 20 10 27 32 31 20 4 34 16 49 45 11 22 24 47 29 55 4 8 11 21 15 29 3 7
38 46 78 85 43 43 77 86 84 108 7 21 26 45 46 59 18 13 41 36 50 51 9 15 24
28 33 28 33 0 62 29 62 63 1 47 51 131 81 135 44 7 59 30 59 92 0 52 3 60 36
94 50 52 68 99 69 181 0 86 32 166 77 193 37 22 58 64 58 119 0 24 6 58 13 76
12 28 21 76 43 233 2 17 18 43 34 59 28 27 30 33 30 108 0 43 5 88 12 100 15
29 38 153 54 297 6 45 13 62 45 97 21 23 41 52 44 65 3 13 4 1990 3 4393 l-3
4370 -50 0 c-27 0 -474 -1 -993 -2z"/>
<path d="M90935 20953 l-950 -3 -13 -40 c-9 -31 -12 -896 -12 -4109 0 -3448
-2 -4077 -14 -4113 -8 -24 -16 -54 -19 -68 -4 -14 -16 -29 -29 -35 -27 -12
-35 -43 -37 -137 -1 -74 -32 -158 -70 -192 -11 -11 -21 -25 -21 -33 0 -7 -8
-13 -19 -13 -35 0 -42 -26 -51 -183 0 -5 -27 -35 -59 -68 -44 -43 -70 -61
-101 -68 -56 -12 -80 -36 -80 -79 0 -50 -20 -111 -39 -117 -9 -3 -24 -19 -33
-35 -10 -17 -30 -35 -46 -41 -17 -6 -32 -21 -39 -39 -7 -19 -18 -30 -30 -30
-10 0 -30 -13 -43 -28 -22 -26 -35 -30 -104 -36 -100 -9 -116 -17 -116 -59 0
-26 -11 -43 -62 -92 -94 -89 -120 -96 -394 -91 -140 2 -228 7 -241 15 -12 6
-39 11 -61 11 -32 0 -41 4 -45 21 -4 16 -12 20 -34 17 -25 -3 -28 0 -25 23 4
34 -54 74 -120 84 -27 3 -48 10 -48 14 0 12 -102 53 -119 48 -31 -8 -203 21
-221 38 -10 9 -31 20 -46 24 -22 6 -30 14 -32 37 -2 16 -11 35 -20 42 -9 7
-21 36 -27 65 -9 45 -14 52 -35 55 -14 2 -35 14 -48 28 -13 13 -29 24 -36 24
-19 0 -59 60 -66 100 -4 25 -13 39 -33 48 -16 8 -32 24 -37 36 -4 12 -15 28
-24 35 -9 7 -16 24 -16 37 0 29 -50 88 -89 104 -16 6 -34 24 -39 38 -19 48
-32 156 -32 255 l0 96 -41 23 c-23 13 -47 34 -54 48 -7 14 -23 45 -36 70 l-24
45 0 4112 0 4113 -1003 0 -1004 0 -44 -42 c-24 -24 -53 -51 -64 -60 -20 -18
-20 -18 -20 -3850 0 -3755 1 -3834 20 -3858 12 -16 17 -34 13 -51 -3 -15 0
-30 6 -33 7 -5 9 -22 5 -47 -6 -38 -4 -43 29 -70 19 -16 40 -44 45 -62 22 -70
33 -302 31 -678 l-1 -394 28 -20 c56 -40 84 -73 84 -101 0 -15 8 -36 17 -47
16 -17 18 -42 18 -202 l0 -184 38 -15 c26 -10 37 -20 37 -35 0 -13 11 -26 30
-36 22 -11 31 -24 35 -53 4 -20 10 -47 16 -60 5 -13 9 -88 9 -167 l0 -143 33
-28 c35 -29 77 -96 77 -123 0 -9 7 -34 14 -56 11 -30 21 -42 43 -48 19 -6 33
-19 41 -39 6 -16 19 -32 29 -34 10 -3 33 -27 51 -53 26 -37 32 -54 26 -75 -5
-22 1 -34 35 -71 22 -24 43 -56 47 -72 12 -54 15 -63 25 -63 6 0 22 -13 36
-30 13 -16 30 -30 37 -30 26 0 54 -74 62 -158 4 -53 12 -89 22 -99 8 -8 16
-33 16 -56 1 -41 2 -42 40 -45 22 -2 51 -12 65 -21 15 -10 36 -22 49 -25 12
-4 22 -12 22 -17 0 -5 18 -29 41 -53 22 -25 45 -61 50 -80 8 -29 15 -36 34
-36 16 0 31 -10 42 -27 9 -16 24 -37 34 -48 9 -11 19 -31 21 -44 3 -26 18 -37
60 -45 15 -4 30 -15 33 -26 4 -11 30 -38 60 -60 60 -45 95 -94 95 -137 0 -37
16 -53 55 -53 44 0 114 -36 125 -64 5 -13 22 -33 39 -46 22 -15 31 -30 31 -49
l0 -28 88 -6 c48 -3 100 -12 115 -20 15 -8 53 -42 85 -76 41 -43 65 -61 83
-61 14 0 31 -6 37 -12 9 -9 46 -12 126 -9 75 2 116 -1 120 -8 4 -6 19 -11 33
-11 33 0 135 -67 156 -102 l15 -26 136 5 c187 8 306 -9 347 -49 16 -16 43 -34
61 -39 18 -5 132 -9 254 -9 205 0 225 2 270 22 27 11 54 27 59 34 6 7 35 15
65 18 30 3 75 8 100 12 25 3 128 7 230 8 192 2 223 8 235 45 8 27 99 81 135
81 16 0 32 5 35 10 3 6 25 10 49 10 23 0 51 7 62 15 11 9 42 14 77 15 71 0
112 21 134 68 9 19 23 36 32 39 9 2 30 10 46 18 17 8 55 17 85 21 65 7 80 17
80 53 0 39 90 125 133 127 94 5 113 22 151 134 10 30 29 65 42 77 12 12 25 31
29 42 6 20 37 35 93 46 24 5 33 13 38 33 10 45 27 72 46 72 10 0 29 17 43 39
26 39 72 61 129 61 17 0 26 5 26 16 0 8 11 30 25 48 14 18 25 38 25 44 0 6 12
18 28 26 39 20 59 46 66 88 4 22 15 42 26 48 11 6 20 19 20 29 0 12 11 23 30
30 34 11 70 80 70 133 0 22 11 41 45 74 25 24 45 48 45 54 0 6 11 15 25 20 17
6 25 17 25 32 0 14 22 46 58 83 55 56 92 122 92 164 0 10 9 26 20 36 11 10 20
31 20 47 0 21 5 28 19 28 10 0 32 5 48 10 l30 11 -1 112 c0 179 21 227 143
330 17 14 21 28 21 81 0 36 4 67 9 70 5 3 11 23 14 43 12 82 21 109 38 121 11
7 19 19 19 27 0 7 13 23 29 35 17 11 33 31 37 43 5 17 6 156 2 312 -3 99 43
232 83 242 10 3 21 13 24 22 2 9 15 21 27 26 17 8 22 16 19 35 -3 14 -6 2034
-8 4490 l-3 4465 -42 0 c-24 0 -471 -1 -993 -2z"/>
<path d="M94178 16970 c1 -2186 -1 -4002 -6 -4035 -6 -52 -11 -61 -35 -73 -25
-12 -28 -18 -21 -41 4 -14 9 -309 11 -655 3 -543 2 -631 -11 -651 -14 -21 -13
-24 3 -39 10 -9 22 -16 28 -16 6 0 15 -8 19 -17 5 -10 10 -643 12 -1408 1
-764 6 -1393 10 -1397 5 -5 1145 -9 2535 -11 2244 -2 2526 0 2520 13 -5 8 -9
647 -10 1420 -3 1379 -3 1405 -22 1412 -11 4 -35 2 -54 -3 -22 -6 -556 -8
-1408 -7 -1330 3 -1375 4 -1409 22 -19 11 -47 27 -62 38 -14 10 -33 18 -42 18
-18 0 -39 43 -70 140 l-21 65 -2 4574 -3 4574 -22 15 c-13 9 -25 19 -28 24 -3
4 -435 9 -960 10 l-955 3 3 -3975z"/>
<path d="M36878 5538 c-22 -41 -23 -55 -28 -340 -5 -288 -6 -297 -27 -327 -13
-17 -23 -45 -23 -62 0 -20 9 -42 23 -57 l22 -24 3 -1607 2 -1608 -26 -39 c-23
-33 -28 -52 -32 -130 -4 -83 -3 -94 18 -122 28 -38 39 -94 40 -206 0 -102 25
-172 63 -181 12 -3 825 -4 1807 -3 l1785 3 13 28 c7 15 26 34 42 42 16 8 31
23 34 32 3 10 17 31 31 47 l25 29 2 2244 c1 1233 2 2260 3 2281 l0 37 -914 3
c-743 2 -917 0 -930 -11 -52 -43 -38 -42 -883 -45 -711 -2 -811 -1 -837 13
-17 8 -45 15 -63 15 -18 0 -46 7 -62 15 -46 24 -63 19 -88 -27z"/>
<path d="M46112 5497 l-33 -22 1 -2304 c0 -2133 1 -2306 17 -2323 16 -17 124
-18 3184 -18 l3169 0 6 28 c9 42 26 74 55 107 l28 30 3 525 c2 404 6 530 16
547 17 31 18 2387 1 2430 -6 16 -14 93 -16 173 -5 122 -3 151 11 177 19 38 23
254 5 300 -6 15 -14 83 -17 151 -5 129 -13 152 -53 152 -12 0 -21 9 -25 25 -3
14 -14 30 -24 35 -12 6 -355 10 -922 10 -885 0 -905 0 -943 -20 -22 -11 -44
-26 -50 -33 -15 -19 -102 -40 -171 -41 -33 0 -76 -8 -95 -17 -19 -9 -55 -22
-82 -28 -61 -14 -3697 -15 -3772 0 -27 5 -69 12 -92 15 -32 5 -43 11 -43 25 0
11 -10 20 -28 24 -18 4 -34 18 -46 40 -22 40 -38 42 -84 12z"/>
</g>
</svg>
